<svg xmlns="http://www.w3.org/2000/svg" xmlns:xlink="http://www.w3.org/1999/xlink" version="1.2" width="210.00mm" height="297.00mm" viewBox="0 0 119.5016 169.0094">
<style type="text/css">
<![CDATA[
tspan { white-space: pre; }
]]>
</style>
<!-- Page: 4/4 -->
<g transform="translate(5.6906, 4.3817)">
<text font-family="serif" font-size="2.2001" text-anchor="start" fill="currentColor">
<tspan>4</tspan>
</text>
</g>
<g transform="translate(85.0306, 23.2005)">
<rect x="0.0000" y="-2.0000" width="0.1900" height="4.0000" ry="0.0000" fill="currentColor"/>
</g>
<g transform="translate(24.8762, 23.2005)">
<rect x="0.0000" y="-2.0000" width="0.1900" height="4.0000" ry="0.0000" fill="currentColor"/>
</g>
<g transform="translate(33.5275, 23.2005)">
<rect x="0.0000" y="-2.0000" width="0.1900" height="4.0000" ry="0.0000" fill="currentColor"/>
</g>
<g transform="translate(49.3813, 23.2005)">
<rect x="0.0000" y="-2.0000" width="0.1900" height="4.0000" ry="0.0000" fill="currentColor"/>
</g>
<g transform="translate(59.1087, 23.2005)">
<rect x="0.0000" y="-2.0000" width="0.1900" height="4.0000" ry="0.0000" fill="currentColor"/>
</g>
<g transform="translate(113.6210, 23.2005)">
<rect x="0.0000" y="-2.0000" width="0.1900" height="4.0000" ry="0.0000" fill="currentColor"/>
</g>
<g transform="translate(95.0850, 23.2005)">
<rect x="0.0000" y="-2.0000" width="0.1900" height="4.0000" ry="0.0000" fill="currentColor"/>
</g>
<g transform="translate(73.3653, 23.2005)">
<rect x="0.0000" y="-2.0000" width="0.1900" height="4.0000" ry="0.0000" fill="currentColor"/>
</g>
<g transform="translate(66.4720, 23.2005)">
<rect x="0.0000" y="-2.0000" width="0.1900" height="4.0000" ry="0.0000" fill="currentColor"/>
</g>
<g transform="translate(104.1503, 23.2005)">
<rect x="0.0000" y="-2.0000" width="0.1900" height="4.0000" ry="0.0000" fill="currentColor"/>
</g>
<g transform="translate(40.7340, 23.2005)">
<rect x="0.0000" y="-2.0000" width="0.1900" height="4.0000" ry="0.0000" fill="currentColor"/>
</g>
<g transform="translate(17.5129, 23.2005)">
<rect x="0.0000" y="-2.0000" width="0.1900" height="4.0000" ry="0.0000" fill="currentColor"/>
</g>
<g transform="translate(5.6906, 25.2005)">
<line stroke-linejoin="round" stroke-linecap="round" stroke-width="0.1000" stroke="currentColor" x1="0.0500" y1="0" x2="108.0705" y2="0"/>
</g>
<g transform="translate(5.6906, 24.2005)">
<line stroke-linejoin="round" stroke-linecap="round" stroke-width="0.1000" stroke="currentColor" x1="0.0500" y1="0" x2="108.0705" y2="0"/>
</g>
<g transform="translate(5.6906, 23.2005)">
<line stroke-linejoin="round" stroke-linecap="round" stroke-width="0.1000" stroke="currentColor" x1="0.0500" y1="0" x2="108.0705" y2="0"/>
</g>
<g transform="translate(5.6906, 22.2005)">
<line stroke-linejoin="round" stroke-linecap="round" stroke-width="0.1000" stroke="currentColor" x1="0.0500" y1="0" x2="108.0705" y2="0"/>
</g>
<g transform="translate(5.6906, 21.2005)">
<line stroke-linejoin="round" stroke-linecap="round" stroke-width="0.1000" stroke="currentColor" x1="0.0500" y1="0" x2="108.0705" y2="0"/>
</g>
<g transform="translate(5.6906, 19.2005)">
<rect x="102.6321" y="-0.1000" width="2.6275" height="0.2000" ry="0.1000" fill="currentColor"/>
</g>
<g transform="translate(5.6906, 20.2005)">
<rect x="102.3166" y="-0.1000" width="2.9430" height="0.2000" ry="0.1000" fill="currentColor"/>
</g>
<g transform="translate(5.6906, 20.2005)">
<rect x="62.0609" y="-0.1000" width="2.9430" height="0.2000" ry="0.1000" fill="currentColor"/>
</g>
<g transform="translate(5.6906, 20.2005)">
<rect x="55.1676" y="-0.1000" width="2.9430" height="0.2000" ry="0.1000" fill="currentColor"/>
</g>
<g transform="translate(5.6906, 20.2005)">
<rect x="48.1198" y="-0.1000" width="2.6275" height="0.2000" ry="0.1000" fill="currentColor"/>
</g>
<g transform="translate(5.6906, 20.2005)">
<rect x="38.0770" y="-0.1000" width="2.9430" height="0.2000" ry="0.1000" fill="currentColor"/>
</g>
<g transform="translate(5.6906, 20.2005)">
<rect x="29.7451" y="-0.1000" width="2.6275" height="0.2000" ry="0.1000" fill="currentColor"/>
</g>
<g transform="translate(79.9073, 7.9367)">
<text font-family="sans-serif" font-size="2.6163" text-anchor="start" fill="currentColor">
<tspan>B</tspan>
</text>
</g>
<g transform="translate(81.6486, 6.7475)">
<text font-family="sans-serif" font-size="1.8500" text-anchor="start" fill="currentColor">
<tspan>6</tspan>
</text>
</g>
<g transform="translate(79.9073, 20.7005)">
<path transform="scale(0.0040, -0.0040)" d="M213 112c-50 0 -69 -43 -69 -88c0 -77 57 -136 134 -136c50 0 69 43 69 88c0 77 -57 136 -134 136zM491 0c0 -43 -34 -75 -72 -96c-53 -29 -114 -40 -174 -40s-120 11 -173 40c-38 21 -72 53 -72 96s34 75 72 96c53 29 113 40 173 40s121 -11 174 -40
c38 -21 72 -53 72 -96z" fill="currentColor"/>
</g>
<g transform="translate(78.2053, 21.2005)">
<path transform="scale(0.0040, -0.0040)" d="M213 112c-50 0 -69 -43 -69 -88c0 -77 57 -136 134 -136c50 0 69 43 69 88c0 77 -57 136 -134 136zM491 0c0 -43 -34 -75 -72 -96c-53 -29 -114 -40 -174 -40s-120 11 -173 40c-38 21 -72 53 -72 96s34 75 72 96c53 29 113 40 173 40s121 -11 174 -40
c38 -21 72 -53 72 -96z" fill="currentColor"/>
</g>
<g transform="translate(79.9073, 22.2005)">
<path transform="scale(0.0040, -0.0040)" d="M213 112c-50 0 -69 -43 -69 -88c0 -77 57 -136 134 -136c50 0 69 43 69 88c0 77 -57 136 -134 136zM491 0c0 -43 -34 -75 -72 -96c-53 -29 -114 -40 -174 -40s-120 11 -173 40c-38 21 -72 53 -72 96s34 75 72 96c53 29 113 40 173 40s121 -11 174 -40
c38 -21 72 -53 72 -96z" fill="currentColor"/>
</g>
<g transform="translate(79.9073, 23.2005)">
<path transform="scale(0.0040, -0.0040)" d="M213 112c-50 0 -69 -43 -69 -88c0 -77 57 -136 134 -136c50 0 69 43 69 88c0 77 -57 136 -134 136zM491 0c0 -43 -34 -75 -72 -96c-53 -29 -114 -40 -174 -40s-120 11 -173 40c-38 21 -72 53 -72 96s34 75 72 96c53 29 113 40 173 40s121 -11 174 -40
c38 -21 72 -53 72 -96z" fill="currentColor"/>
</g>
<g transform="translate(79.1575, 9.4104)">
<path stroke-width="0.1000" stroke-linejoin="round" stroke-linecap="round" stroke="currentColor" fill="currentColor" d="M0 0.6000C0.2000 0.2000 0.8000 0.2000 1.0000 0.6000C0.8000 0.1000 0.2000 0.1000 0 0.6000z"/>
</g>
<g transform="translate(79.1575, 9.4104)">
<path stroke-width="0.1000" stroke-linejoin="round" stroke-linecap="round" stroke="currentColor" fill="currentColor" d="M2.0000 1.6000C2.2000 1.2000 2.8000 1.2000 3.0000 1.6000C2.8000 1.1000 2.2000 1.1000 2.0000 1.6000z"/>
</g>
<g transform="translate(79.1575, 9.4104)">
<rect x="2.9750" y="-0.0250" width="0.0500" height="5.0500" ry="0.0250" fill="currentColor"/>
</g>
<g transform="translate(79.1575, 9.4104)">
<rect x="1.9750" y="-0.0250" width="0.0500" height="5.0500" ry="0.0250" fill="currentColor"/>
</g>
<g transform="translate(79.1575, 9.4104)">
<rect x="0.9750" y="-0.0250" width="0.0500" height="5.0500" ry="0.0250" fill="currentColor"/>
</g>
<g transform="translate(79.1575, 9.4104)">
<rect x="-0.0250" y="-0.0250" width="0.0500" height="5.0500" ry="0.0250" fill="currentColor"/>
</g>
<g transform="translate(79.1575, 9.4104)">
<line stroke-linejoin="round" stroke-linecap="round" stroke-width="0.0500" stroke="currentColor" x1="0.0000" y1="0" x2="3.0000" y2="0"/>
</g>
<g transform="translate(79.1575, 9.4104)">
<line stroke-linejoin="round" stroke-linecap="round" stroke-width="0.0500" stroke="currentColor" x1="0.0000" y1="1.0000" x2="3.0000" y2="1.0000"/>
</g>
<g transform="translate(79.1575, 9.4104)">
<line stroke-linejoin="round" stroke-linecap="round" stroke-width="0.0500" stroke="currentColor" x1="0.0000" y1="2.0000" x2="3.0000" y2="2.0000"/>
</g>
<g transform="translate(79.1575, 9.4104)">
<line stroke-linejoin="round" stroke-linecap="round" stroke-width="0.0500" stroke="currentColor" x1="0.0000" y1="3.0000" x2="3.0000" y2="3.0000"/>
</g>
<g transform="translate(79.1575, 9.4104)">
<line stroke-linejoin="round" stroke-linecap="round" stroke-width="0.0500" stroke="currentColor" x1="0.0000" y1="4.0000" x2="3.0000" y2="4.0000"/>
</g>
<g color="rgb(0%, 0%, 0%)">
<g transform="translate(79.1575, 10.0104)">
<circle stroke-linejoin="round" stroke-linecap="round" fill="currentColor" stroke="currentColor" stroke-width="0.0500" r="0.2500"/>
</g>
</g>
<g transform="translate(78.7820, 15.6664)">
<text font-family="sans-serif" font-size="1.3198" text-anchor="start" fill="currentColor">
<tspan>1</tspan>
</text>
</g>
<g color="rgb(0%, 0%, 0%)">
<g transform="translate(80.1575, 10.0104)">
<circle stroke-linejoin="round" stroke-linecap="round" fill="currentColor" stroke="currentColor" stroke-width="0.0500" r="0.2500"/>
</g>
</g>
<g transform="translate(79.7820, 15.6664)">
<text font-family="sans-serif" font-size="1.3198" text-anchor="start" fill="currentColor">
<tspan>1</tspan>
</text>
</g>
<g color="rgb(0%, 0%, 0%)">
<g transform="translate(81.1575, 11.0104)">
<circle stroke-linejoin="round" stroke-linecap="round" fill="currentColor" stroke="currentColor" stroke-width="0.0500" r="0.2500"/>
</g>
</g>
<g transform="translate(80.7820, 15.6323)">
<text font-family="sans-serif" font-size="1.3198" text-anchor="start" fill="currentColor">
<tspan>2</tspan>
</text>
</g>
<g color="rgb(0%, 0%, 0%)">
<g transform="translate(82.1575, 11.0104)">
<circle stroke-linejoin="round" stroke-linecap="round" fill="currentColor" stroke="currentColor" stroke-width="0.0500" r="0.2500"/>
</g>
</g>
<g transform="translate(81.7820, 15.6323)">
<text font-family="sans-serif" font-size="1.3198" text-anchor="start" fill="currentColor">
<tspan>2</tspan>
</text>
</g>
<g transform="translate(79.1575, 9.4104)">
<rect x="-0.0250" y="-0.1250" width="3.0500" height="0.1500" ry="0.0250" fill="currentColor"/>
</g>
<g transform="translate(76.7553, 20.7005)">
<path transform="scale(0.0040, -0.0040)" d="M216 -312c0 -10 -8 -19 -18 -19s-19 9 -19 19v145l-83 -31v-158c0 -10 -9 -19 -19 -19s-18 9 -18 19v145l-32 -12c-2 -1 -5 -1 -7 -1c-11 0 -20 9 -20 20v60c0 8 5 16 13 19l46 16v160l-32 -11c-2 -1 -5 -1 -7 -1c-11 0 -20 9 -20 20v60c0 8 5 15 13 18l46 17v158
c0 10 8 19 18 19s19 -9 19 -19v-145l83 31v158c0 10 9 19 19 19s18 -9 18 -19v-145l32 12c2 1 5 1 7 1c11 0 20 -9 20 -20v-60c0 -8 -5 -16 -13 -19l-46 -16v-160l32 11c2 1 5 1 7 1c11 0 20 -9 20 -20v-60c0 -8 -5 -15 -13 -18l-46 -17v-158zM96 65v-160l83 30v160z" fill="currentColor"/>
</g>
<g transform="translate(88.9338, 9.4104)">
<path stroke-width="0.1000" stroke-linejoin="round" stroke-linecap="round" stroke="currentColor" fill="currentColor" d="M0 0.6000C0.3000 0.2000 1.7000 0.2000 2.0000 0.6000C1.7000 0.1000 0.3000 0.1000 0 0.6000z"/>
</g>
<g transform="translate(88.9338, 9.4104)">
<rect x="2.9750" y="-0.0250" width="0.0500" height="5.0500" ry="0.0250" fill="currentColor"/>
</g>
<g transform="translate(88.9338, 9.4104)">
<rect x="1.9750" y="-0.0250" width="0.0500" height="5.0500" ry="0.0250" fill="currentColor"/>
</g>
<g transform="translate(88.9338, 9.4104)">
<rect x="0.9750" y="-0.0250" width="0.0500" height="5.0500" ry="0.0250" fill="currentColor"/>
</g>
<g transform="translate(88.9338, 9.4104)">
<rect x="-0.0250" y="-0.0250" width="0.0500" height="5.0500" ry="0.0250" fill="currentColor"/>
</g>
<g transform="translate(88.9338, 9.4104)">
<line stroke-linejoin="round" stroke-linecap="round" stroke-width="0.0500" stroke="currentColor" x1="0.0000" y1="0" x2="3.0000" y2="0"/>
</g>
<g transform="translate(88.9338, 9.4104)">
<line stroke-linejoin="round" stroke-linecap="round" stroke-width="0.0500" stroke="currentColor" x1="0.0000" y1="1.0000" x2="3.0000" y2="1.0000"/>
</g>
<g transform="translate(88.9338, 9.4104)">
<line stroke-linejoin="round" stroke-linecap="round" stroke-width="0.0500" stroke="currentColor" x1="0.0000" y1="2.0000" x2="3.0000" y2="2.0000"/>
</g>
<g transform="translate(88.9338, 9.4104)">
<line stroke-linejoin="round" stroke-linecap="round" stroke-width="0.0500" stroke="currentColor" x1="0.0000" y1="3.0000" x2="3.0000" y2="3.0000"/>
</g>
<g transform="translate(88.9338, 9.4104)">
<line stroke-linejoin="round" stroke-linecap="round" stroke-width="0.0500" stroke="currentColor" x1="0.0000" y1="4.0000" x2="3.0000" y2="4.0000"/>
</g>
<g color="rgb(0%, 0%, 0%)">
<g transform="translate(88.9338, 10.0104)">
<circle stroke-linejoin="round" stroke-linecap="round" fill="currentColor" stroke="currentColor" stroke-width="0.0500" r="0.2500"/>
</g>
</g>
<g transform="translate(88.5583, 15.6664)">
<text font-family="sans-serif" font-size="1.3198" text-anchor="start" fill="currentColor">
<tspan>1</tspan>
</text>
</g>
<g color="rgb(0%, 0%, 0%)">
<g transform="translate(89.9338, 10.0104)">
<circle stroke-linejoin="round" stroke-linecap="round" fill="currentColor" stroke="currentColor" stroke-width="0.0500" r="0.2500"/>
</g>
</g>
<g transform="translate(89.5583, 15.6664)">
<text font-family="sans-serif" font-size="1.3198" text-anchor="start" fill="currentColor">
<tspan>1</tspan>
</text>
</g>
<g color="rgb(0%, 0%, 0%)">
<g transform="translate(90.9338, 10.0104)">
<circle stroke-linejoin="round" stroke-linecap="round" fill="currentColor" stroke="currentColor" stroke-width="0.0500" r="0.2500"/>
</g>
</g>
<g transform="translate(90.5583, 15.6664)">
<text font-family="sans-serif" font-size="1.3198" text-anchor="start" fill="currentColor">
<tspan>1</tspan>
</text>
</g>
<g color="rgb(0%, 0%, 0%)">
<g transform="translate(91.9338, 13.0104)">
<circle stroke-linejoin="round" stroke-linecap="round" fill="currentColor" stroke="currentColor" stroke-width="0.0500" r="0.2500"/>
</g>
</g>
<g transform="translate(91.5583, 15.7005)">
<text font-family="sans-serif" font-size="1.3198" text-anchor="start" fill="currentColor">
<tspan>4</tspan>
</text>
</g>
<g transform="translate(92.4509, 10.8201)">
<text font-family="sans-serif" font-size="1.1003" text-anchor="start" fill="currentColor">
<tspan>iv</tspan>
</text>
</g>
<g transform="translate(89.9616, 7.9367)">
<text font-family="sans-serif" font-size="2.6163" text-anchor="start" fill="currentColor">
<tspan>B</tspan>
</text>
</g>
<g transform="translate(91.7030, 6.7475)">
<text font-family="sans-serif" font-size="1.8500" text-anchor="start" fill="currentColor">
<tspan>sus</tspan>
</text>
</g>
<g transform="translate(94.5710, 6.7475)">
<text font-family="sans-serif" font-size="1.8500" text-anchor="start" fill="currentColor">
<tspan>2</tspan>
</text>
</g>
<g transform="translate(74.1553, 21.2005)">
<path transform="scale(0.0040, -0.0040)" d="M216 -312c0 -10 -8 -19 -18 -19s-19 9 -19 19v145l-83 -31v-158c0 -10 -9 -19 -19 -19s-18 9 -18 19v145l-32 -12c-2 -1 -5 -1 -7 -1c-11 0 -20 9 -20 20v60c0 8 5 16 13 19l46 16v160l-32 -11c-2 -1 -5 -1 -7 -1c-11 0 -20 9 -20 20v60c0 8 5 15 13 18l46 17v158
c0 10 8 19 18 19s19 -9 19 -19v-145l83 31v158c0 10 9 19 19 19s18 -9 18 -19v-145l32 12c2 1 5 1 7 1c11 0 20 -9 20 -20v-60c0 -8 -5 -16 -13 -19l-46 -16v-160l32 11c2 1 5 1 7 1c11 0 20 -9 20 -20v-60c0 -8 -5 -15 -13 -18l-46 -17v-158zM96 65v-160l83 30v160z" fill="currentColor"/>
</g>
<g transform="translate(75.4553, 22.2005)">
<path transform="scale(0.0040, -0.0040)" d="M216 -312c0 -10 -8 -19 -18 -19s-19 9 -19 19v145l-83 -31v-158c0 -10 -9 -19 -19 -19s-18 9 -18 19v145l-32 -12c-2 -1 -5 -1 -7 -1c-11 0 -20 9 -20 20v60c0 8 5 16 13 19l46 16v160l-32 -11c-2 -1 -5 -1 -7 -1c-11 0 -20 9 -20 20v60c0 8 5 15 13 18l46 17v158
c0 10 8 19 18 19s19 -9 19 -19v-145l83 31v158c0 10 9 19 19 19s18 -9 18 -19v-145l32 12c2 1 5 1 7 1c11 0 20 -9 20 -20v-60c0 -8 -5 -16 -13 -19l-46 -16v-160l32 11c2 1 5 1 7 1c11 0 20 -9 20 -20v-60c0 -8 -5 -15 -13 -18l-46 -17v-158zM96 65v-160l83 30v160z" fill="currentColor"/>
</g>
<g transform="translate(59.8987, 21.2005)">
<path transform="scale(0.0040, -0.0040)" d="M216 -312c0 -10 -8 -19 -18 -19s-19 9 -19 19v145l-83 -31v-158c0 -10 -9 -19 -19 -19s-18 9 -18 19v145l-32 -12c-2 -1 -5 -1 -7 -1c-11 0 -20 9 -20 20v60c0 8 5 16 13 19l46 16v160l-32 -11c-2 -1 -5 -1 -7 -1c-11 0 -20 9 -20 20v60c0 8 5 15 13 18l46 17v158
c0 10 8 19 18 19s19 -9 19 -19v-145l83 31v158c0 10 9 19 19 19s18 -9 18 -19v-145l32 12c2 1 5 1 7 1c11 0 20 -9 20 -20v-60c0 -8 -5 -16 -13 -19l-46 -16v-160l32 11c2 1 5 1 7 1c11 0 20 -9 20 -20v-60c0 -8 -5 -15 -13 -18l-46 -17v-158zM96 65v-160l83 30v160z" fill="currentColor"/>
</g>
<g transform="translate(61.3487, 20.2005)">
<path transform="scale(0.0040, -0.0040)" d="M213 112c-50 0 -69 -43 -69 -88c0 -77 57 -136 134 -136c50 0 69 43 69 88c0 77 -57 136 -134 136zM491 0c0 -43 -34 -75 -72 -96c-53 -29 -114 -40 -174 -40s-120 11 -173 40c-38 21 -72 53 -72 96s34 75 72 96c53 29 113 40 173 40s121 -11 174 -40
c38 -21 72 -53 72 -96z" fill="currentColor"/>
</g>
<g transform="translate(61.3487, 21.2005)">
<path transform="scale(0.0040, -0.0040)" d="M213 112c-50 0 -69 -43 -69 -88c0 -77 57 -136 134 -136c50 0 69 43 69 88c0 77 -57 136 -134 136zM491 0c0 -43 -34 -75 -72 -96c-53 -29 -114 -40 -174 -40s-120 11 -173 40c-38 21 -72 53 -72 96s34 75 72 96c53 29 113 40 173 40s121 -11 174 -40
c38 -21 72 -53 72 -96z" fill="currentColor"/>
</g>
<g transform="translate(61.3487, 22.2005)">
<path transform="scale(0.0040, -0.0040)" d="M213 112c-50 0 -69 -43 -69 -88c0 -77 57 -136 134 -136c50 0 69 43 69 88c0 77 -57 136 -134 136zM491 0c0 -43 -34 -75 -72 -96c-53 -29 -114 -40 -174 -40s-120 11 -173 40c-38 21 -72 53 -72 96s34 75 72 96c53 29 113 40 173 40s121 -11 174 -40
c38 -21 72 -53 72 -96z" fill="currentColor"/>
</g>
<g transform="translate(61.3487, 23.2005)">
<path transform="scale(0.0040, -0.0040)" d="M213 112c-50 0 -69 -43 -69 -88c0 -77 57 -136 134 -136c50 0 69 43 69 88c0 77 -57 136 -134 136zM491 0c0 -43 -34 -75 -72 -96c-53 -29 -114 -40 -174 -40s-120 11 -173 40c-38 21 -72 53 -72 96s34 75 72 96c53 29 113 40 173 40s121 -11 174 -40
c38 -21 72 -53 72 -96z" fill="currentColor"/>
</g>
<g transform="translate(60.5989, 9.4104)">
<rect x="2.9750" y="-0.0250" width="0.0500" height="5.0500" ry="0.0250" fill="currentColor"/>
</g>
<g transform="translate(60.5989, 9.4104)">
<rect x="1.9750" y="-0.0250" width="0.0500" height="5.0500" ry="0.0250" fill="currentColor"/>
</g>
<g transform="translate(60.5989, 9.4104)">
<rect x="0.9750" y="-0.0250" width="0.0500" height="5.0500" ry="0.0250" fill="currentColor"/>
</g>
<g transform="translate(60.5989, 9.4104)">
<rect x="-0.0250" y="-0.0250" width="0.0500" height="5.0500" ry="0.0250" fill="currentColor"/>
</g>
<g transform="translate(60.5989, 9.4104)">
<line stroke-linejoin="round" stroke-linecap="round" stroke-width="0.0500" stroke="currentColor" x1="0.0000" y1="0" x2="3.0000" y2="0"/>
</g>
<g transform="translate(60.5989, 9.4104)">
<line stroke-linejoin="round" stroke-linecap="round" stroke-width="0.0500" stroke="currentColor" x1="0.0000" y1="1.0000" x2="3.0000" y2="1.0000"/>
</g>
<g transform="translate(60.5989, 9.4104)">
<line stroke-linejoin="round" stroke-linecap="round" stroke-width="0.0500" stroke="currentColor" x1="0.0000" y1="2.0000" x2="3.0000" y2="2.0000"/>
</g>
<g transform="translate(60.5989, 9.4104)">
<line stroke-linejoin="round" stroke-linecap="round" stroke-width="0.0500" stroke="currentColor" x1="0.0000" y1="3.0000" x2="3.0000" y2="3.0000"/>
</g>
<g transform="translate(60.5989, 9.4104)">
<line stroke-linejoin="round" stroke-linecap="round" stroke-width="0.0500" stroke="currentColor" x1="0.0000" y1="4.0000" x2="3.0000" y2="4.0000"/>
</g>
<g color="rgb(0%, 0%, 0%)">
<g transform="translate(60.5989, 13.0104)">
<circle stroke-linejoin="round" stroke-linecap="round" fill="currentColor" stroke="currentColor" stroke-width="0.0500" r="0.2500"/>
</g>
</g>
<g transform="translate(60.2233, 15.6323)">
<text font-family="sans-serif" font-size="1.3198" text-anchor="start" fill="currentColor">
<tspan>3</tspan>
</text>
</g>
<g color="rgb(0%, 0%, 0%)">
<g transform="translate(63.5989, 11.0104)">
<circle stroke-linejoin="round" stroke-linecap="round" fill="currentColor" stroke="currentColor" stroke-width="0.0500" r="0.2500"/>
</g>
</g>
<g transform="translate(63.2233, 15.6664)">
<text font-family="sans-serif" font-size="1.3198" text-anchor="start" fill="currentColor">
<tspan>1</tspan>
</text>
</g>
<g transform="translate(60.5989, 9.4104)">
<rect x="-0.0250" y="-0.1250" width="3.0500" height="0.1500" ry="0.0250" fill="currentColor"/>
</g>
<g transform="translate(61.2575, 9.0854)">
<text font-family="sans-serif" font-size="0.8803" text-anchor="start" fill="currentColor">
<tspan>O</tspan>
</text>
</g>
<g transform="translate(62.2575, 9.0854)">
<text font-family="sans-serif" font-size="0.8803" text-anchor="start" fill="currentColor">
<tspan>O</tspan>
</text>
</g>
<g transform="translate(61.3487, 7.9367)">
<text font-family="sans-serif" font-size="2.6163" text-anchor="start" fill="currentColor">
<tspan>B</tspan>
</text>
</g>
<g transform="translate(63.0900, 7.9367)">
<text font-family="sans-serif" font-size="2.6163" text-anchor="start" fill="currentColor">
<tspan>m</tspan>
</text>
</g>
<g transform="translate(65.2752, 6.7475)">
<text font-family="sans-serif" font-size="1.8500" text-anchor="start" fill="currentColor">
<tspan>7</tspan>
</text>
</g>
<g transform="translate(68.2420, 21.2005)">
<path transform="scale(0.0040, -0.0040)" d="M213 112c-50 0 -69 -43 -69 -88c0 -77 57 -136 134 -136c50 0 69 43 69 88c0 77 -57 136 -134 136zM491 0c0 -43 -34 -75 -72 -96c-53 -29 -114 -40 -174 -40s-120 11 -173 40c-38 21 -72 53 -72 96s34 75 72 96c53 29 113 40 173 40s121 -11 174 -40
c38 -21 72 -53 72 -96z" fill="currentColor"/>
</g>
<g transform="translate(68.2420, 20.2005)">
<path transform="scale(0.0040, -0.0040)" d="M213 112c-50 0 -69 -43 -69 -88c0 -77 57 -136 134 -136c50 0 69 43 69 88c0 77 -57 136 -134 136zM491 0c0 -43 -34 -75 -72 -96c-53 -29 -114 -40 -174 -40s-120 11 -173 40c-38 21 -72 53 -72 96s34 75 72 96c53 29 113 40 173 40s121 -11 174 -40
c38 -21 72 -53 72 -96z" fill="currentColor"/>
</g>
<g transform="translate(68.2420, 22.2005)">
<path transform="scale(0.0040, -0.0040)" d="M213 112c-50 0 -69 -43 -69 -88c0 -77 57 -136 134 -136c50 0 69 43 69 88c0 77 -57 136 -134 136zM491 0c0 -43 -34 -75 -72 -96c-53 -29 -114 -40 -174 -40s-120 11 -173 40c-38 21 -72 53 -72 96s34 75 72 96c53 29 113 40 173 40s121 -11 174 -40
c38 -21 72 -53 72 -96z" fill="currentColor"/>
</g>
<g transform="translate(68.2420, 23.2005)">
<path transform="scale(0.0040, -0.0040)" d="M213 112c-50 0 -69 -43 -69 -88c0 -77 57 -136 134 -136c50 0 69 43 69 88c0 77 -57 136 -134 136zM491 0c0 -43 -34 -75 -72 -96c-53 -29 -114 -40 -174 -40s-120 11 -173 40c-38 21 -72 53 -72 96s34 75 72 96c53 29 113 40 173 40s121 -11 174 -40
c38 -21 72 -53 72 -96z" fill="currentColor"/>
</g>
<g transform="translate(67.4922, 9.4104)">
<rect x="2.9750" y="-0.0250" width="0.0500" height="5.0500" ry="0.0250" fill="currentColor"/>
</g>
<g transform="translate(67.4922, 9.4104)">
<rect x="1.9750" y="-0.0250" width="0.0500" height="5.0500" ry="0.0250" fill="currentColor"/>
</g>
<g transform="translate(67.4922, 9.4104)">
<rect x="0.9750" y="-0.0250" width="0.0500" height="5.0500" ry="0.0250" fill="currentColor"/>
</g>
<g transform="translate(67.4922, 9.4104)">
<rect x="-0.0250" y="-0.0250" width="0.0500" height="5.0500" ry="0.0250" fill="currentColor"/>
</g>
<g transform="translate(67.4922, 9.4104)">
<line stroke-linejoin="round" stroke-linecap="round" stroke-width="0.0500" stroke="currentColor" x1="0.0000" y1="0" x2="3.0000" y2="0"/>
</g>
<g transform="translate(67.4922, 9.4104)">
<line stroke-linejoin="round" stroke-linecap="round" stroke-width="0.0500" stroke="currentColor" x1="0.0000" y1="1.0000" x2="3.0000" y2="1.0000"/>
</g>
<g transform="translate(67.4922, 9.4104)">
<line stroke-linejoin="round" stroke-linecap="round" stroke-width="0.0500" stroke="currentColor" x1="0.0000" y1="2.0000" x2="3.0000" y2="2.0000"/>
</g>
<g transform="translate(67.4922, 9.4104)">
<line stroke-linejoin="round" stroke-linecap="round" stroke-width="0.0500" stroke="currentColor" x1="0.0000" y1="3.0000" x2="3.0000" y2="3.0000"/>
</g>
<g transform="translate(67.4922, 9.4104)">
<line stroke-linejoin="round" stroke-linecap="round" stroke-width="0.0500" stroke="currentColor" x1="0.0000" y1="4.0000" x2="3.0000" y2="4.0000"/>
</g>
<g color="rgb(0%, 0%, 0%)">
<g transform="translate(67.4922, 11.0104)">
<circle stroke-linejoin="round" stroke-linecap="round" fill="currentColor" stroke="currentColor" stroke-width="0.0500" r="0.2500"/>
</g>
</g>
<g transform="translate(67.1166, 15.6323)">
<text font-family="sans-serif" font-size="1.3198" text-anchor="start" fill="currentColor">
<tspan>2</tspan>
</text>
</g>
<g color="rgb(0%, 0%, 0%)">
<g transform="translate(69.4922, 11.0104)">
<circle stroke-linejoin="round" stroke-linecap="round" fill="currentColor" stroke="currentColor" stroke-width="0.0500" r="0.2500"/>
</g>
</g>
<g transform="translate(69.1166, 15.6323)">
<text font-family="sans-serif" font-size="1.3198" text-anchor="start" fill="currentColor">
<tspan>3</tspan>
</text>
</g>
<g color="rgb(0%, 0%, 0%)">
<g transform="translate(70.4922, 10.0104)">
<circle stroke-linejoin="round" stroke-linecap="round" fill="currentColor" stroke="currentColor" stroke-width="0.0500" r="0.2500"/>
</g>
</g>
<g transform="translate(70.1166, 15.6664)">
<text font-family="sans-serif" font-size="1.3198" text-anchor="start" fill="currentColor">
<tspan>1</tspan>
</text>
</g>
<g transform="translate(67.4922, 9.4104)">
<rect x="-0.0250" y="-0.1250" width="3.0500" height="0.1500" ry="0.0250" fill="currentColor"/>
</g>
<g transform="translate(68.1508, 9.0854)">
<text font-family="sans-serif" font-size="0.8803" text-anchor="start" fill="currentColor">
<tspan>O</tspan>
</text>
</g>
<g transform="translate(68.2420, 7.9367)">
<text font-family="sans-serif" font-size="2.6163" text-anchor="start" fill="currentColor">
<tspan>B</tspan>
</text>
</g>
<g transform="translate(69.9833, 6.7475)">
<text font-family="sans-serif" font-size="1.8500" text-anchor="start" fill="currentColor">
<tspan>ø</tspan>
</text>
</g>
<g transform="translate(108.4977, 19.2005)">
<path transform="scale(0.0040, -0.0040)" d="M213 112c-50 0 -69 -43 -69 -88c0 -77 57 -136 134 -136c50 0 69 43 69 88c0 77 -57 136 -134 136zM491 0c0 -43 -34 -75 -72 -96c-53 -29 -114 -40 -174 -40s-120 11 -173 40c-38 21 -72 53 -72 96s34 75 72 96c53 29 113 40 173 40s121 -11 174 -40
c38 -21 72 -53 72 -96z" fill="currentColor"/>
</g>
<g transform="translate(106.2403, 22.2005)">
<path transform="scale(0.0040, -0.0040)" d="M216 -312c0 -10 -8 -19 -18 -19s-19 9 -19 19v145l-83 -31v-158c0 -10 -9 -19 -19 -19s-18 9 -18 19v145l-32 -12c-2 -1 -5 -1 -7 -1c-11 0 -20 9 -20 20v60c0 8 5 16 13 19l46 16v160l-32 -11c-2 -1 -5 -1 -7 -1c-11 0 -20 9 -20 20v60c0 8 5 15 13 18l46 17v158
c0 10 8 19 18 19s19 -9 19 -19v-145l83 31v158c0 10 9 19 19 19s18 -9 18 -19v-145l32 12c2 1 5 1 7 1c11 0 20 -9 20 -20v-60c0 -8 -5 -16 -13 -19l-46 -16v-160l32 11c2 1 5 1 7 1c11 0 20 -9 20 -20v-60c0 -8 -5 -15 -13 -18l-46 -17v-158zM96 65v-160l83 30v160z" fill="currentColor"/>
</g>
<g transform="translate(108.4977, 20.2005)">
<path transform="scale(0.0040, -0.0040)" d="M213 112c-50 0 -69 -43 -69 -88c0 -77 57 -136 134 -136c50 0 69 43 69 88c0 77 -57 136 -134 136zM491 0c0 -43 -34 -75 -72 -96c-53 -29 -114 -40 -174 -40s-120 11 -173 40c-38 21 -72 53 -72 96s34 75 72 96c53 29 113 40 173 40s121 -11 174 -40
c38 -21 72 -53 72 -96z" fill="currentColor"/>
</g>
<g transform="translate(108.4977, 21.2005)">
<path transform="scale(0.0040, -0.0040)" d="M213 112c-50 0 -69 -43 -69 -88c0 -77 57 -136 134 -136c50 0 69 43 69 88c0 77 -57 136 -134 136zM491 0c0 -43 -34 -75 -72 -96c-53 -29 -114 -40 -174 -40s-120 11 -173 40c-38 21 -72 53 -72 96s34 75 72 96c53 29 113 40 173 40s121 -11 174 -40
c38 -21 72 -53 72 -96z" fill="currentColor"/>
</g>
<g transform="translate(108.4977, 22.2005)">
<path transform="scale(0.0040, -0.0040)" d="M213 112c-50 0 -69 -43 -69 -88c0 -77 57 -136 134 -136c50 0 69 43 69 88c0 77 -57 136 -134 136zM491 0c0 -43 -34 -75 -72 -96c-53 -29 -114 -40 -174 -40s-120 11 -173 40c-38 21 -72 53 -72 96s34 75 72 96c53 29 113 40 173 40s121 -11 174 -40
c38 -21 72 -53 72 -96z" fill="currentColor"/>
</g>
<g transform="translate(108.4977, 23.2005)">
<path transform="scale(0.0040, -0.0040)" d="M213 112c-50 0 -69 -43 -69 -88c0 -77 57 -136 134 -136c50 0 69 43 69 88c0 77 -57 136 -134 136zM491 0c0 -43 -34 -75 -72 -96c-53 -29 -114 -40 -174 -40s-120 11 -173 40c-38 21 -72 53 -72 96s34 75 72 96c53 29 113 40 173 40s121 -11 174 -40
c38 -21 72 -53 72 -96z" fill="currentColor"/>
</g>
<g transform="translate(107.7479, 9.4104)">
<rect x="2.9750" y="-0.0250" width="0.0500" height="6.0500" ry="0.0250" fill="currentColor"/>
</g>
<g transform="translate(107.7479, 9.4104)">
<rect x="1.9750" y="-0.0250" width="0.0500" height="6.0500" ry="0.0250" fill="currentColor"/>
</g>
<g transform="translate(107.7479, 9.4104)">
<rect x="0.9750" y="-0.0250" width="0.0500" height="6.0500" ry="0.0250" fill="currentColor"/>
</g>
<g transform="translate(107.7479, 9.4104)">
<rect x="-0.0250" y="-0.0250" width="0.0500" height="6.0500" ry="0.0250" fill="currentColor"/>
</g>
<g transform="translate(107.7479, 9.4104)">
<line stroke-linejoin="round" stroke-linecap="round" stroke-width="0.0500" stroke="currentColor" x1="0.0000" y1="0" x2="3.0000" y2="0"/>
</g>
<g transform="translate(107.7479, 9.4104)">
<line stroke-linejoin="round" stroke-linecap="round" stroke-width="0.0500" stroke="currentColor" x1="0.0000" y1="1.0000" x2="3.0000" y2="1.0000"/>
</g>
<g transform="translate(107.7479, 9.4104)">
<line stroke-linejoin="round" stroke-linecap="round" stroke-width="0.0500" stroke="currentColor" x1="0.0000" y1="2.0000" x2="3.0000" y2="2.0000"/>
</g>
<g transform="translate(107.7479, 9.4104)">
<line stroke-linejoin="round" stroke-linecap="round" stroke-width="0.0500" stroke="currentColor" x1="0.0000" y1="3.0000" x2="3.0000" y2="3.0000"/>
</g>
<g transform="translate(107.7479, 9.4104)">
<line stroke-linejoin="round" stroke-linecap="round" stroke-width="0.0500" stroke="currentColor" x1="0.0000" y1="4.0000" x2="3.0000" y2="4.0000"/>
</g>
<g transform="translate(107.7479, 9.4104)">
<line stroke-linejoin="round" stroke-linecap="round" stroke-width="0.0500" stroke="currentColor" x1="0.0000" y1="5.0000" x2="3.0000" y2="5.0000"/>
</g>
<g color="rgb(0%, 0%, 0%)">
<g transform="translate(107.7479, 13.0104)">
<circle stroke-linejoin="round" stroke-linecap="round" fill="currentColor" stroke="currentColor" stroke-width="0.0500" r="0.2500"/>
</g>
</g>
<g transform="translate(107.3724, 16.6323)">
<text font-family="sans-serif" font-size="1.3198" text-anchor="start" fill="currentColor">
<tspan>2</tspan>
</text>
</g>
<g color="rgb(0%, 0%, 0%)">
<g transform="translate(108.7479, 10.0104)">
<circle stroke-linejoin="round" stroke-linecap="round" fill="currentColor" stroke="currentColor" stroke-width="0.0500" r="0.2500"/>
</g>
</g>
<g transform="translate(108.3724, 16.6664)">
<text font-family="sans-serif" font-size="1.3198" text-anchor="start" fill="currentColor">
<tspan>1</tspan>
</text>
</g>
<g color="rgb(0%, 0%, 0%)">
<g transform="translate(109.7479, 13.0104)">
<circle stroke-linejoin="round" stroke-linecap="round" fill="currentColor" stroke="currentColor" stroke-width="0.0500" r="0.2500"/>
</g>
</g>
<g transform="translate(109.3724, 16.6323)">
<text font-family="sans-serif" font-size="1.3198" text-anchor="start" fill="currentColor">
<tspan>3</tspan>
</text>
</g>
<g color="rgb(0%, 0%, 0%)">
<g transform="translate(110.7479, 14.0104)">
<circle stroke-linejoin="round" stroke-linecap="round" fill="currentColor" stroke="currentColor" stroke-width="0.0500" r="0.2500"/>
</g>
</g>
<g transform="translate(110.3724, 16.7005)">
<text font-family="sans-serif" font-size="1.3198" text-anchor="start" fill="currentColor">
<tspan>4</tspan>
</text>
</g>
<g transform="translate(107.7479, 9.4104)">
<rect x="-0.0250" y="-0.1250" width="3.0500" height="0.1500" ry="0.0250" fill="currentColor"/>
</g>
<g transform="translate(108.4977, 7.9367)">
<text font-family="sans-serif" font-size="2.6163" text-anchor="start" fill="currentColor">
<tspan>B</tspan>
</text>
</g>
<g transform="translate(110.2390, 6.7475)">
<text font-family="sans-serif" font-size="1.8500" text-anchor="start" fill="currentColor">
<tspan>9</tspan>
</text>
</g>
<g transform="translate(107.0477, 19.2005)">
<path transform="scale(0.0040, -0.0040)" d="M216 -312c0 -10 -8 -19 -18 -19s-19 9 -19 19v145l-83 -31v-158c0 -10 -9 -19 -19 -19s-18 9 -18 19v145l-32 -12c-2 -1 -5 -1 -7 -1c-11 0 -20 9 -20 20v60c0 8 5 16 13 19l46 16v160l-32 -11c-2 -1 -5 -1 -7 -1c-11 0 -20 9 -20 20v60c0 8 5 15 13 18l46 17v158
c0 10 8 19 18 19s19 -9 19 -19v-145l83 31v158c0 10 9 19 19 19s18 -9 18 -19v-145l32 12c2 1 5 1 7 1c11 0 20 -9 20 -20v-60c0 -8 -5 -16 -13 -19l-46 -16v-160l32 11c2 1 5 1 7 1c11 0 20 -9 20 -20v-60c0 -8 -5 -15 -13 -18l-46 -17v-158zM96 65v-160l83 30v160z" fill="currentColor"/>
</g>
<g transform="translate(104.9403, 21.2005)">
<path transform="scale(0.0040, -0.0040)" d="M216 -312c0 -10 -8 -19 -18 -19s-19 9 -19 19v145l-83 -31v-158c0 -10 -9 -19 -19 -19s-18 9 -18 19v145l-32 -12c-2 -1 -5 -1 -7 -1c-11 0 -20 9 -20 20v60c0 8 5 16 13 19l46 16v160l-32 -11c-2 -1 -5 -1 -7 -1c-11 0 -20 9 -20 20v60c0 8 5 15 13 18l46 17v158
c0 10 8 19 18 19s19 -9 19 -19v-145l83 31v158c0 10 9 19 19 19s18 -9 18 -19v-145l32 12c2 1 5 1 7 1c11 0 20 -9 20 -20v-60c0 -8 -5 -16 -13 -19l-46 -16v-160l32 11c2 1 5 1 7 1c11 0 20 -9 20 -20v-60c0 -8 -5 -15 -13 -18l-46 -17v-158zM96 65v-160l83 30v160z" fill="currentColor"/>
</g>
<g transform="translate(87.1206, 21.2005)">
<path transform="scale(0.0040, -0.0040)" d="M216 -312c0 -10 -8 -19 -18 -19s-19 9 -19 19v145l-83 -31v-158c0 -10 -9 -19 -19 -19s-18 9 -18 19v145l-32 -12c-2 -1 -5 -1 -7 -1c-11 0 -20 9 -20 20v60c0 8 5 16 13 19l46 16v160l-32 -11c-2 -1 -5 -1 -7 -1c-11 0 -20 9 -20 20v60c0 8 5 15 13 18l46 17v158
c0 10 8 19 18 19s19 -9 19 -19v-145l83 31v158c0 10 9 19 19 19s18 -9 18 -19v-145l32 12c2 1 5 1 7 1c11 0 20 -9 20 -20v-60c0 -8 -5 -16 -13 -19l-46 -16v-160l32 11c2 1 5 1 7 1c11 0 20 -9 20 -20v-60c0 -8 -5 -15 -13 -18l-46 -17v-158zM96 65v-160l83 30v160z" fill="currentColor"/>
</g>
<g transform="translate(85.8206, 22.7005)">
<path transform="scale(0.0040, -0.0040)" d="M216 -312c0 -10 -8 -19 -18 -19s-19 9 -19 19v145l-83 -31v-158c0 -10 -9 -19 -19 -19s-18 9 -18 19v145l-32 -12c-2 -1 -5 -1 -7 -1c-11 0 -20 9 -20 20v60c0 8 5 16 13 19l46 16v160l-32 -11c-2 -1 -5 -1 -7 -1c-11 0 -20 9 -20 20v60c0 8 5 15 13 18l46 17v158
c0 10 8 19 18 19s19 -9 19 -19v-145l83 31v158c0 10 9 19 19 19s18 -9 18 -19v-145l32 12c2 1 5 1 7 1c11 0 20 -9 20 -20v-60c0 -8 -5 -16 -13 -19l-46 -16v-160l32 11c2 1 5 1 7 1c11 0 20 -9 20 -20v-60c0 -8 -5 -15 -13 -18l-46 -17v-158zM96 65v-160l83 30v160z" fill="currentColor"/>
</g>
<g transform="translate(89.9616, 21.2005)">
<path transform="scale(0.0040, -0.0040)" d="M213 112c-50 0 -69 -43 -69 -88c0 -77 57 -136 134 -136c50 0 69 43 69 88c0 77 -57 136 -134 136zM491 0c0 -43 -34 -75 -72 -96c-53 -29 -114 -40 -174 -40s-120 11 -173 40c-38 21 -72 53 -72 96s34 75 72 96c53 29 113 40 173 40s121 -11 174 -40
c38 -21 72 -53 72 -96z" fill="currentColor"/>
</g>
<g transform="translate(89.9616, 22.7005)">
<path transform="scale(0.0040, -0.0040)" d="M213 112c-50 0 -69 -43 -69 -88c0 -77 57 -136 134 -136c50 0 69 43 69 88c0 77 -57 136 -134 136zM491 0c0 -43 -34 -75 -72 -96c-53 -29 -114 -40 -174 -40s-120 11 -173 40c-38 21 -72 53 -72 96s34 75 72 96c53 29 113 40 173 40s121 -11 174 -40
c38 -21 72 -53 72 -96z" fill="currentColor"/>
</g>
<g transform="translate(95.8750, 21.2005)">
<path transform="scale(0.0040, -0.0040)" d="M216 -312c0 -10 -8 -19 -18 -19s-19 9 -19 19v145l-83 -31v-158c0 -10 -9 -19 -19 -19s-18 9 -18 19v145l-32 -12c-2 -1 -5 -1 -7 -1c-11 0 -20 9 -20 20v60c0 8 5 16 13 19l46 16v160l-32 -11c-2 -1 -5 -1 -7 -1c-11 0 -20 9 -20 20v60c0 8 5 15 13 18l46 17v158
c0 10 8 19 18 19s19 -9 19 -19v-145l83 31v158c0 10 9 19 19 19s18 -9 18 -19v-145l32 12c2 1 5 1 7 1c11 0 20 -9 20 -20v-60c0 -8 -5 -16 -13 -19l-46 -16v-160l32 11c2 1 5 1 7 1c11 0 20 -9 20 -20v-60c0 -8 -5 -15 -13 -18l-46 -17v-158zM96 65v-160l83 30v160z" fill="currentColor"/>
</g>
<g transform="translate(88.2596, 23.2005)">
<path transform="scale(0.0040, -0.0040)" d="M213 112c-50 0 -69 -43 -69 -88c0 -77 57 -136 134 -136c50 0 69 43 69 88c0 77 -57 136 -134 136zM491 0c0 -43 -34 -75 -72 -96c-53 -29 -114 -40 -174 -40s-120 11 -173 40c-38 21 -72 53 -72 96s34 75 72 96c53 29 113 40 173 40s121 -11 174 -40
c38 -21 72 -53 72 -96z" fill="currentColor"/>
</g>
<g transform="translate(99.0270, 21.2005)">
<path transform="scale(0.0040, -0.0040)" d="M213 112c-50 0 -69 -43 -69 -88c0 -77 57 -136 134 -136c50 0 69 43 69 88c0 77 -57 136 -134 136zM491 0c0 -43 -34 -75 -72 -96c-53 -29 -114 -40 -174 -40s-120 11 -173 40c-38 21 -72 53 -72 96s34 75 72 96c53 29 113 40 173 40s121 -11 174 -40
c38 -21 72 -53 72 -96z" fill="currentColor"/>
</g>
<g transform="translate(97.3250, 21.7005)">
<path transform="scale(0.0040, -0.0040)" d="M213 112c-50 0 -69 -43 -69 -88c0 -77 57 -136 134 -136c50 0 69 43 69 88c0 77 -57 136 -134 136zM491 0c0 -43 -34 -75 -72 -96c-53 -29 -114 -40 -174 -40s-120 11 -173 40c-38 21 -72 53 -72 96s34 75 72 96c53 29 113 40 173 40s121 -11 174 -40
c38 -21 72 -53 72 -96z" fill="currentColor"/>
</g>
<g transform="translate(99.0270, 23.2005)">
<path transform="scale(0.0040, -0.0040)" d="M213 112c-50 0 -69 -43 -69 -88c0 -77 57 -136 134 -136c50 0 69 43 69 88c0 77 -57 136 -134 136zM491 0c0 -43 -34 -75 -72 -96c-53 -29 -114 -40 -174 -40s-120 11 -173 40c-38 21 -72 53 -72 96s34 75 72 96c53 29 113 40 173 40s121 -11 174 -40
c38 -21 72 -53 72 -96z" fill="currentColor"/>
</g>
<g transform="translate(98.2772, 9.4104)">
<path stroke-width="0.1000" stroke-linejoin="round" stroke-linecap="round" stroke="currentColor" fill="currentColor" d="M1.0000 1.6000C1.3000 1.2000 2.7000 1.2000 3.0000 1.6000C2.7000 1.1000 1.3000 1.1000 1.0000 1.6000z"/>
</g>
<g transform="translate(98.2772, 9.4104)">
<rect x="2.9750" y="-0.0250" width="0.0500" height="5.0500" ry="0.0250" fill="currentColor"/>
</g>
<g transform="translate(98.2772, 9.4104)">
<rect x="1.9750" y="-0.0250" width="0.0500" height="5.0500" ry="0.0250" fill="currentColor"/>
</g>
<g transform="translate(98.2772, 9.4104)">
<rect x="0.9750" y="-0.0250" width="0.0500" height="5.0500" ry="0.0250" fill="currentColor"/>
</g>
<g transform="translate(98.2772, 9.4104)">
<rect x="-0.0250" y="-0.0250" width="0.0500" height="5.0500" ry="0.0250" fill="currentColor"/>
</g>
<g transform="translate(98.2772, 9.4104)">
<line stroke-linejoin="round" stroke-linecap="round" stroke-width="0.0500" stroke="currentColor" x1="0.0000" y1="0" x2="3.0000" y2="0"/>
</g>
<g transform="translate(98.2772, 9.4104)">
<line stroke-linejoin="round" stroke-linecap="round" stroke-width="0.0500" stroke="currentColor" x1="0.0000" y1="1.0000" x2="3.0000" y2="1.0000"/>
</g>
<g transform="translate(98.2772, 9.4104)">
<line stroke-linejoin="round" stroke-linecap="round" stroke-width="0.0500" stroke="currentColor" x1="0.0000" y1="2.0000" x2="3.0000" y2="2.0000"/>
</g>
<g transform="translate(98.2772, 9.4104)">
<line stroke-linejoin="round" stroke-linecap="round" stroke-width="0.0500" stroke="currentColor" x1="0.0000" y1="3.0000" x2="3.0000" y2="3.0000"/>
</g>
<g transform="translate(98.2772, 9.4104)">
<line stroke-linejoin="round" stroke-linecap="round" stroke-width="0.0500" stroke="currentColor" x1="0.0000" y1="4.0000" x2="3.0000" y2="4.0000"/>
</g>
<g color="rgb(0%, 0%, 0%)">
<g transform="translate(98.2772, 13.0104)">
<circle stroke-linejoin="round" stroke-linecap="round" fill="currentColor" stroke="currentColor" stroke-width="0.0500" r="0.2500"/>
</g>
</g>
<g transform="translate(97.9016, 15.6323)">
<text font-family="sans-serif" font-size="1.3198" text-anchor="start" fill="currentColor">
<tspan>3</tspan>
</text>
</g>
<g color="rgb(0%, 0%, 0%)">
<g transform="translate(99.2772, 11.0104)">
<circle stroke-linejoin="round" stroke-linecap="round" fill="currentColor" stroke="currentColor" stroke-width="0.0500" r="0.2500"/>
</g>
</g>
<g transform="translate(98.9016, 15.6664)">
<text font-family="sans-serif" font-size="1.3198" text-anchor="start" fill="currentColor">
<tspan>1</tspan>
</text>
</g>
<g color="rgb(0%, 0%, 0%)">
<g transform="translate(100.2772, 11.0104)">
<circle stroke-linejoin="round" stroke-linecap="round" fill="currentColor" stroke="currentColor" stroke-width="0.0500" r="0.2500"/>
</g>
</g>
<g transform="translate(99.9016, 15.6664)">
<text font-family="sans-serif" font-size="1.3198" text-anchor="start" fill="currentColor">
<tspan>1</tspan>
</text>
</g>
<g color="rgb(0%, 0%, 0%)">
<g transform="translate(101.2772, 11.0104)">
<circle stroke-linejoin="round" stroke-linecap="round" fill="currentColor" stroke="currentColor" stroke-width="0.0500" r="0.2500"/>
</g>
</g>
<g transform="translate(100.9016, 15.6664)">
<text font-family="sans-serif" font-size="1.3198" text-anchor="start" fill="currentColor">
<tspan>1</tspan>
</text>
</g>
<g transform="translate(98.2772, 9.4104)">
<rect x="-0.0250" y="-0.1250" width="3.0500" height="0.1500" ry="0.0250" fill="currentColor"/>
</g>
<g transform="translate(99.0270, 7.9367)">
<text font-family="sans-serif" font-size="2.6163" text-anchor="start" fill="currentColor">
<tspan>B</tspan>
</text>
</g>
<g transform="translate(100.7683, 6.7475)">
<text font-family="sans-serif" font-size="1.8500" text-anchor="start" fill="currentColor">
<tspan>sus</tspan>
</text>
</g>
<g transform="translate(103.6363, 6.7475)">
<text font-family="sans-serif" font-size="1.8500" text-anchor="start" fill="currentColor">
<tspan>4</tspan>
</text>
</g>
<g transform="translate(28.4042, 21.2005)">
<path transform="scale(0.0040, -0.0040)" d="M213 112c-50 0 -69 -43 -69 -88c0 -77 57 -136 134 -136c50 0 69 43 69 88c0 77 -57 136 -134 136zM491 0c0 -43 -34 -75 -72 -96c-53 -29 -114 -40 -174 -40s-120 11 -173 40c-38 21 -72 53 -72 96s34 75 72 96c53 29 113 40 173 40s121 -11 174 -40
c38 -21 72 -53 72 -96z" fill="currentColor"/>
</g>
<g transform="translate(28.4042, 22.2005)">
<path transform="scale(0.0040, -0.0040)" d="M213 112c-50 0 -69 -43 -69 -88c0 -77 57 -136 134 -136c50 0 69 43 69 88c0 77 -57 136 -134 136zM491 0c0 -43 -34 -75 -72 -96c-53 -29 -114 -40 -174 -40s-120 11 -173 40c-38 21 -72 53 -72 96s34 75 72 96c53 29 113 40 173 40s121 -11 174 -40
c38 -21 72 -53 72 -96z" fill="currentColor"/>
</g>
<g transform="translate(28.4042, 23.2005)">
<path transform="scale(0.0040, -0.0040)" d="M213 112c-50 0 -69 -43 -69 -88c0 -77 57 -136 134 -136c50 0 69 43 69 88c0 77 -57 136 -134 136zM491 0c0 -43 -34 -75 -72 -96c-53 -29 -114 -40 -174 -40s-120 11 -173 40c-38 21 -72 53 -72 96s34 75 72 96c53 29 113 40 173 40s121 -11 174 -40
c38 -21 72 -53 72 -96z" fill="currentColor"/>
</g>
<g transform="translate(27.6545, 9.4104)">
<rect x="2.9750" y="-0.0250" width="0.0500" height="5.0500" ry="0.0250" fill="currentColor"/>
</g>
<g transform="translate(27.6545, 9.4104)">
<rect x="1.9750" y="-0.0250" width="0.0500" height="5.0500" ry="0.0250" fill="currentColor"/>
</g>
<g transform="translate(27.6545, 9.4104)">
<rect x="0.9750" y="-0.0250" width="0.0500" height="5.0500" ry="0.0250" fill="currentColor"/>
</g>
<g transform="translate(27.6545, 9.4104)">
<rect x="-0.0250" y="-0.0250" width="0.0500" height="5.0500" ry="0.0250" fill="currentColor"/>
</g>
<g transform="translate(27.6545, 9.4104)">
<line stroke-linejoin="round" stroke-linecap="round" stroke-width="0.0500" stroke="currentColor" x1="0.0000" y1="0" x2="3.0000" y2="0"/>
</g>
<g transform="translate(27.6545, 9.4104)">
<line stroke-linejoin="round" stroke-linecap="round" stroke-width="0.0500" stroke="currentColor" x1="0.0000" y1="1.0000" x2="3.0000" y2="1.0000"/>
</g>
<g transform="translate(27.6545, 9.4104)">
<line stroke-linejoin="round" stroke-linecap="round" stroke-width="0.0500" stroke="currentColor" x1="0.0000" y1="2.0000" x2="3.0000" y2="2.0000"/>
</g>
<g transform="translate(27.6545, 9.4104)">
<line stroke-linejoin="round" stroke-linecap="round" stroke-width="0.0500" stroke="currentColor" x1="0.0000" y1="3.0000" x2="3.0000" y2="3.0000"/>
</g>
<g transform="translate(27.6545, 9.4104)">
<line stroke-linejoin="round" stroke-linecap="round" stroke-width="0.0500" stroke="currentColor" x1="0.0000" y1="4.0000" x2="3.0000" y2="4.0000"/>
</g>
<g color="rgb(0%, 0%, 0%)">
<g transform="translate(27.6545, 13.0104)">
<circle stroke-linejoin="round" stroke-linecap="round" fill="currentColor" stroke="currentColor" stroke-width="0.0500" r="0.2500"/>
</g>
</g>
<g transform="translate(27.2789, 15.7005)">
<text font-family="sans-serif" font-size="1.3198" text-anchor="start" fill="currentColor">
<tspan>4</tspan>
</text>
</g>
<g color="rgb(0%, 0%, 0%)">
<g transform="translate(28.6545, 10.0104)">
<circle stroke-linejoin="round" stroke-linecap="round" fill="currentColor" stroke="currentColor" stroke-width="0.0500" r="0.2500"/>
</g>
</g>
<g transform="translate(28.2789, 15.6664)">
<text font-family="sans-serif" font-size="1.3198" text-anchor="start" fill="currentColor">
<tspan>1</tspan>
</text>
</g>
<g color="rgb(0%, 0%, 0%)">
<g transform="translate(29.6545, 11.0104)">
<circle stroke-linejoin="round" stroke-linecap="round" fill="currentColor" stroke="currentColor" stroke-width="0.0500" r="0.2500"/>
</g>
</g>
<g transform="translate(29.2789, 15.6323)">
<text font-family="sans-serif" font-size="1.3198" text-anchor="start" fill="currentColor">
<tspan>2</tspan>
</text>
</g>
<g color="rgb(0%, 0%, 0%)">
<g transform="translate(30.6545, 12.0104)">
<circle stroke-linejoin="round" stroke-linecap="round" fill="currentColor" stroke="currentColor" stroke-width="0.0500" r="0.2500"/>
</g>
</g>
<g transform="translate(30.2789, 15.6323)">
<text font-family="sans-serif" font-size="1.3198" text-anchor="start" fill="currentColor">
<tspan>3</tspan>
</text>
</g>
<g transform="translate(27.6545, 9.4104)">
<rect x="-0.0250" y="-0.1250" width="3.0500" height="0.1500" ry="0.0250" fill="currentColor"/>
</g>
<g transform="translate(28.4042, 7.9367)">
<text font-family="sans-serif" font-size="2.6163" text-anchor="start" fill="currentColor">
<tspan>B</tspan>
</text>
</g>
<g transform="translate(30.1455, 7.9367)">
<text font-family="sans-serif" font-size="2.6163" text-anchor="start" fill="currentColor">
<tspan>+</tspan>
</text>
</g>
<g transform="translate(18.3029, 21.2005)">
<path transform="scale(0.0040, -0.0040)" d="M216 -312c0 -10 -8 -19 -18 -19s-19 9 -19 19v145l-83 -31v-158c0 -10 -9 -19 -19 -19s-18 9 -18 19v145l-32 -12c-2 -1 -5 -1 -7 -1c-11 0 -20 9 -20 20v60c0 8 5 16 13 19l46 16v160l-32 -11c-2 -1 -5 -1 -7 -1c-11 0 -20 9 -20 20v60c0 8 5 15 13 18l46 17v158
c0 10 8 19 18 19s19 -9 19 -19v-145l83 31v158c0 10 9 19 19 19s18 -9 18 -19v-145l32 12c2 1 5 1 7 1c11 0 20 -9 20 -20v-60c0 -8 -5 -16 -13 -19l-46 -16v-160l32 11c2 1 5 1 7 1c11 0 20 -9 20 -20v-60c0 -8 -5 -15 -13 -18l-46 -17v-158zM96 65v-160l83 30v160z" fill="currentColor"/>
</g>
<g transform="translate(35.6107, 23.2005)">
<path transform="scale(0.0040, -0.0040)" d="M213 112c-50 0 -69 -43 -69 -88c0 -77 57 -136 134 -136c50 0 69 43 69 88c0 77 -57 136 -134 136zM491 0c0 -43 -34 -75 -72 -96c-53 -29 -114 -40 -174 -40s-120 11 -173 40c-38 21 -72 53 -72 96s34 75 72 96c53 29 113 40 173 40s121 -11 174 -40
c38 -21 72 -53 72 -96z" fill="currentColor"/>
</g>
<g transform="translate(34.8609, 9.4104)">
<rect x="2.9750" y="-0.0250" width="0.0500" height="5.0500" ry="0.0250" fill="currentColor"/>
</g>
<g transform="translate(34.8609, 9.4104)">
<rect x="1.9750" y="-0.0250" width="0.0500" height="5.0500" ry="0.0250" fill="currentColor"/>
</g>
<g transform="translate(34.8609, 9.4104)">
<rect x="0.9750" y="-0.0250" width="0.0500" height="5.0500" ry="0.0250" fill="currentColor"/>
</g>
<g transform="translate(34.8609, 9.4104)">
<rect x="-0.0250" y="-0.0250" width="0.0500" height="5.0500" ry="0.0250" fill="currentColor"/>
</g>
<g transform="translate(34.8609, 9.4104)">
<line stroke-linejoin="round" stroke-linecap="round" stroke-width="0.0500" stroke="currentColor" x1="0.0000" y1="0" x2="3.0000" y2="0"/>
</g>
<g transform="translate(34.8609, 9.4104)">
<line stroke-linejoin="round" stroke-linecap="round" stroke-width="0.0500" stroke="currentColor" x1="0.0000" y1="1.0000" x2="3.0000" y2="1.0000"/>
</g>
<g transform="translate(34.8609, 9.4104)">
<line stroke-linejoin="round" stroke-linecap="round" stroke-width="0.0500" stroke="currentColor" x1="0.0000" y1="2.0000" x2="3.0000" y2="2.0000"/>
</g>
<g transform="translate(34.8609, 9.4104)">
<line stroke-linejoin="round" stroke-linecap="round" stroke-width="0.0500" stroke="currentColor" x1="0.0000" y1="3.0000" x2="3.0000" y2="3.0000"/>
</g>
<g transform="translate(34.8609, 9.4104)">
<line stroke-linejoin="round" stroke-linecap="round" stroke-width="0.0500" stroke="currentColor" x1="0.0000" y1="4.0000" x2="3.0000" y2="4.0000"/>
</g>
<g color="rgb(0%, 0%, 0%)">
<g transform="translate(34.8609, 10.0104)">
<circle stroke-linejoin="round" stroke-linecap="round" fill="currentColor" stroke="currentColor" stroke-width="0.0500" r="0.2500"/>
</g>
</g>
<g transform="translate(34.4853, 15.6664)">
<text font-family="sans-serif" font-size="1.3198" text-anchor="start" fill="currentColor">
<tspan>1</tspan>
</text>
</g>
<g color="rgb(0%, 0%, 0%)">
<g transform="translate(36.8609, 11.0104)">
<circle stroke-linejoin="round" stroke-linecap="round" fill="currentColor" stroke="currentColor" stroke-width="0.0500" r="0.2500"/>
</g>
</g>
<g transform="translate(36.4853, 15.6323)">
<text font-family="sans-serif" font-size="1.3198" text-anchor="start" fill="currentColor">
<tspan>3</tspan>
</text>
</g>
<g color="rgb(0%, 0%, 0%)">
<g transform="translate(37.8609, 10.0104)">
<circle stroke-linejoin="round" stroke-linecap="round" fill="currentColor" stroke="currentColor" stroke-width="0.0500" r="0.2500"/>
</g>
</g>
<g transform="translate(37.4853, 15.6323)">
<text font-family="sans-serif" font-size="1.3198" text-anchor="start" fill="currentColor">
<tspan>2</tspan>
</text>
</g>
<g transform="translate(34.8609, 9.4104)">
<rect x="-0.0250" y="-0.1250" width="3.0500" height="0.1500" ry="0.0250" fill="currentColor"/>
</g>
<g transform="translate(35.5195, 9.0854)">
<text font-family="sans-serif" font-size="0.8803" text-anchor="start" fill="currentColor">
<tspan>O</tspan>
</text>
</g>
<g transform="translate(35.6107, 7.9367)">
<text font-family="sans-serif" font-size="2.6163" text-anchor="start" fill="currentColor">
<tspan>B</tspan>
</text>
</g>
<g transform="translate(37.3520, 7.9367)">
<text font-family="sans-serif" font-size="3.2965" text-anchor="start" fill="currentColor">
<tspan>°</tspan>
</text>
</g>
<g transform="translate(38.6836, 6.7475)">
<text font-family="sans-serif" font-size="1.8500" text-anchor="start" fill="currentColor">
<tspan>7</tspan>
</text>
</g>
<g transform="translate(27.0065, 21.2005)">
<path transform="scale(0.0040, -0.0040)" d="M152 0c23 -23 56 -28 89 -28c6 0 10 -4 10 -10l9 -87c1 -6 -4 -11 -10 -10l-87 9c-5 1 -10 5 -10 10c0 33 -5 66 -28 89c-23 -23 -27 -56 -27 -89c0 -5 -5 -9 -10 -10l-88 -9c-6 -1 -11 4 -10 10l9 87c0 6 4 10 10 10c33 0 66 5 89 28c-23 23 -56 28 -89 28
c-6 0 -10 4 -10 10l-9 87c-1 6 4 11 10 10l88 -9c5 -1 9 -5 9 -10c0 -33 5 -66 28 -89c23 23 28 56 28 89c0 5 5 9 10 10l87 9c6 1 11 -4 10 -10l-9 -87c0 -6 -4 -10 -10 -10c-33 0 -66 -5 -89 -28z" fill="currentColor"/>
</g>
<g transform="translate(25.6662, 22.2005)">
<path transform="scale(0.0040, -0.0040)" d="M216 -312c0 -10 -8 -19 -18 -19s-19 9 -19 19v145l-83 -31v-158c0 -10 -9 -19 -19 -19s-18 9 -18 19v145l-32 -12c-2 -1 -5 -1 -7 -1c-11 0 -20 9 -20 20v60c0 8 5 16 13 19l46 16v160l-32 -11c-2 -1 -5 -1 -7 -1c-11 0 -20 9 -20 20v60c0 8 5 15 13 18l46 17v158
c0 10 8 19 18 19s19 -9 19 -19v-145l83 31v158c0 10 9 19 19 19s18 -9 18 -19v-145l32 12c2 1 5 1 7 1c11 0 20 -9 20 -20v-60c0 -8 -5 -16 -13 -19l-46 -16v-160l32 11c2 1 5 1 7 1c11 0 20 -9 20 -20v-60c0 -8 -5 -15 -13 -18l-46 -17v-158zM96 65v-160l83 30v160z" fill="currentColor"/>
</g>
<g transform="translate(11.3618, 9.4104)">
<path stroke-width="0.1000" stroke-linejoin="round" stroke-linecap="round" stroke="currentColor" fill="currentColor" d="M0 0.6000C0.2000 0.2000 0.8000 0.2000 1.0000 0.6000C0.8000 0.1000 0.2000 0.1000 0 0.6000z"/>
</g>
<g transform="translate(11.3618, 9.4104)">
<rect x="2.9750" y="-0.0250" width="0.0500" height="5.0500" ry="0.0250" fill="currentColor"/>
</g>
<g transform="translate(11.3618, 9.4104)">
<rect x="1.9750" y="-0.0250" width="0.0500" height="5.0500" ry="0.0250" fill="currentColor"/>
</g>
<g transform="translate(11.3618, 9.4104)">
<rect x="0.9750" y="-0.0250" width="0.0500" height="5.0500" ry="0.0250" fill="currentColor"/>
</g>
<g transform="translate(11.3618, 9.4104)">
<rect x="-0.0250" y="-0.0250" width="0.0500" height="5.0500" ry="0.0250" fill="currentColor"/>
</g>
<g transform="translate(11.3618, 9.4104)">
<line stroke-linejoin="round" stroke-linecap="round" stroke-width="0.0500" stroke="currentColor" x1="0.0000" y1="0" x2="3.0000" y2="0"/>
</g>
<g transform="translate(11.3618, 9.4104)">
<line stroke-linejoin="round" stroke-linecap="round" stroke-width="0.0500" stroke="currentColor" x1="0.0000" y1="1.0000" x2="3.0000" y2="1.0000"/>
</g>
<g transform="translate(11.3618, 9.4104)">
<line stroke-linejoin="round" stroke-linecap="round" stroke-width="0.0500" stroke="currentColor" x1="0.0000" y1="2.0000" x2="3.0000" y2="2.0000"/>
</g>
<g transform="translate(11.3618, 9.4104)">
<line stroke-linejoin="round" stroke-linecap="round" stroke-width="0.0500" stroke="currentColor" x1="0.0000" y1="3.0000" x2="3.0000" y2="3.0000"/>
</g>
<g transform="translate(11.3618, 9.4104)">
<line stroke-linejoin="round" stroke-linecap="round" stroke-width="0.0500" stroke="currentColor" x1="0.0000" y1="4.0000" x2="3.0000" y2="4.0000"/>
</g>
<g color="rgb(0%, 0%, 0%)">
<g transform="translate(11.3618, 10.0104)">
<circle stroke-linejoin="round" stroke-linecap="round" fill="currentColor" stroke="currentColor" stroke-width="0.0500" r="0.2500"/>
</g>
</g>
<g transform="translate(10.9862, 15.6664)">
<text font-family="sans-serif" font-size="1.3198" text-anchor="start" fill="currentColor">
<tspan>1</tspan>
</text>
</g>
<g color="rgb(0%, 0%, 0%)">
<g transform="translate(12.3618, 10.0104)">
<circle stroke-linejoin="round" stroke-linecap="round" fill="currentColor" stroke="currentColor" stroke-width="0.0500" r="0.2500"/>
</g>
</g>
<g transform="translate(11.9862, 15.6664)">
<text font-family="sans-serif" font-size="1.3198" text-anchor="start" fill="currentColor">
<tspan>1</tspan>
</text>
</g>
<g color="rgb(0%, 0%, 0%)">
<g transform="translate(13.3618, 12.0104)">
<circle stroke-linejoin="round" stroke-linecap="round" fill="currentColor" stroke="currentColor" stroke-width="0.0500" r="0.2500"/>
</g>
</g>
<g transform="translate(12.9862, 15.6323)">
<text font-family="sans-serif" font-size="1.3198" text-anchor="start" fill="currentColor">
<tspan>3</tspan>
</text>
</g>
<g color="rgb(0%, 0%, 0%)">
<g transform="translate(14.3618, 13.0104)">
<circle stroke-linejoin="round" stroke-linecap="round" fill="currentColor" stroke="currentColor" stroke-width="0.0500" r="0.2500"/>
</g>
</g>
<g transform="translate(13.9862, 15.7005)">
<text font-family="sans-serif" font-size="1.3198" text-anchor="start" fill="currentColor">
<tspan>4</tspan>
</text>
</g>
<g transform="translate(14.8788, 10.8201)">
<text font-family="sans-serif" font-size="1.1003" text-anchor="start" fill="currentColor">
<tspan>iv</tspan>
</text>
</g>
<g transform="translate(12.3896, 7.9367)">
<text font-family="sans-serif" font-size="2.6163" text-anchor="start" fill="currentColor">
<tspan>B</tspan>
</text>
</g>
<g transform="translate(12.3896, 23.2005)">
<path transform="scale(0.0040, -0.0040)" d="M213 112c-50 0 -69 -43 -69 -88c0 -77 57 -136 134 -136c50 0 69 43 69 88c0 77 -57 136 -134 136zM491 0c0 -43 -34 -75 -72 -96c-53 -29 -114 -40 -174 -40s-120 11 -173 40c-38 21 -72 53 -72 96s34 75 72 96c53 29 113 40 173 40s121 -11 174 -40
c38 -21 72 -53 72 -96z" fill="currentColor"/>
</g>
<g transform="translate(6.4906, 24.2005)">
<path transform="scale(0.0040, -0.0040)" d="M266 -635h-6c-108 0 -195 88 -195 197c0 58 53 103 112 103c54 0 95 -47 95 -103c0 -52 -43 -95 -95 -95c-11 0 -21 2 -31 6c26 -39 68 -65 117 -65h4zM461 -203c68 24 113 95 113 164c0 90 -66 179 -173 190c24 -116 46 -231 60 -354zM74 28c0 -135 129 -247 264 -247
c28 0 55 2 82 6c-14 127 -37 245 -63 364c-79 -8 -124 -61 -124 -119c0 -44 25 -91 81 -123c5 -5 7 -10 7 -15c0 -11 -10 -22 -22 -22c-3 0 -6 1 -9 2c-80 43 -117 115 -117 185c0 88 58 174 160 197c-14 58 -29 117 -46 175c-107 -121 -213 -243 -213 -403zM335 -262
c-188 0 -333 172 -333 374c0 177 131 306 248 441c-19 62 -37 125 -45 190c-6 52 -7 104 -7 156c0 115 55 224 149 292c6 5 14 5 20 0c71 -84 133 -245 133 -358c0 -143 -86 -255 -180 -364c21 -68 39 -138 56 -207c4 0 9 1 13 1c155 0 256 -128 256 -261
c0 -76 -33 -154 -107 -210c-22 -17 -47 -28 -73 -36c3 -35 5 -70 5 -105c0 -19 -1 -39 -2 -58c-7 -119 -88 -225 -202 -228l1 43c93 2 153 92 159 191c1 18 2 37 2 55c0 31 -1 61 -4 92c-29 -5 -58 -8 -89 -8zM428 916c0 55 -4 79 -20 129c-99 -48 -162 -149 -162 -259
c0 -74 18 -133 36 -194c80 97 146 198 146 324z" fill="currentColor"/>
</g>
<g transform="translate(10.9396, 21.2005)">
<path transform="scale(0.0040, -0.0040)" d="M216 -312c0 -10 -8 -19 -18 -19s-19 9 -19 19v145l-83 -31v-158c0 -10 -9 -19 -19 -19s-18 9 -18 19v145l-32 -12c-2 -1 -5 -1 -7 -1c-11 0 -20 9 -20 20v60c0 8 5 16 13 19l46 16v160l-32 -11c-2 -1 -5 -1 -7 -1c-11 0 -20 9 -20 20v60c0 8 5 15 13 18l46 17v158
c0 10 8 19 18 19s19 -9 19 -19v-145l83 31v158c0 10 9 19 19 19s18 -9 18 -19v-145l32 12c2 1 5 1 7 1c11 0 20 -9 20 -20v-60c0 -8 -5 -16 -13 -19l-46 -16v-160l32 11c2 1 5 1 7 1c11 0 20 -9 20 -20v-60c0 -8 -5 -15 -13 -18l-46 -17v-158zM96 65v-160l83 30v160z" fill="currentColor"/>
</g>
<g transform="translate(19.7529, 21.2005)">
<path transform="scale(0.0040, -0.0040)" d="M213 112c-50 0 -69 -43 -69 -88c0 -77 57 -136 134 -136c50 0 69 43 69 88c0 77 -57 136 -134 136zM491 0c0 -43 -34 -75 -72 -96c-53 -29 -114 -40 -174 -40s-120 11 -173 40c-38 21 -72 53 -72 96s34 75 72 96c53 29 113 40 173 40s121 -11 174 -40
c38 -21 72 -53 72 -96z" fill="currentColor"/>
</g>
<g transform="translate(19.7529, 22.2005)">
<path transform="scale(0.0040, -0.0040)" d="M213 112c-50 0 -69 -43 -69 -88c0 -77 57 -136 134 -136c50 0 69 43 69 88c0 77 -57 136 -134 136zM491 0c0 -43 -34 -75 -72 -96c-53 -29 -114 -40 -174 -40s-120 11 -173 40c-38 21 -72 53 -72 96s34 75 72 96c53 29 113 40 173 40s121 -11 174 -40
c38 -21 72 -53 72 -96z" fill="currentColor"/>
</g>
<g transform="translate(19.7529, 23.2005)">
<path transform="scale(0.0040, -0.0040)" d="M213 112c-50 0 -69 -43 -69 -88c0 -77 57 -136 134 -136c50 0 69 43 69 88c0 77 -57 136 -134 136zM491 0c0 -43 -34 -75 -72 -96c-53 -29 -114 -40 -174 -40s-120 11 -173 40c-38 21 -72 53 -72 96s34 75 72 96c53 29 113 40 173 40s121 -11 174 -40
c38 -21 72 -53 72 -96z" fill="currentColor"/>
</g>
<g transform="translate(19.0031, 9.4104)">
<path stroke-width="0.1000" stroke-linejoin="round" stroke-linecap="round" stroke="currentColor" fill="currentColor" d="M2.0000 1.6000C2.2000 1.2000 2.8000 1.2000 3.0000 1.6000C2.8000 1.1000 2.2000 1.1000 2.0000 1.6000z"/>
</g>
<g transform="translate(19.0031, 9.4104)">
<rect x="2.9750" y="-0.0250" width="0.0500" height="5.0500" ry="0.0250" fill="currentColor"/>
</g>
<g transform="translate(19.0031, 9.4104)">
<rect x="1.9750" y="-0.0250" width="0.0500" height="5.0500" ry="0.0250" fill="currentColor"/>
</g>
<g transform="translate(19.0031, 9.4104)">
<rect x="0.9750" y="-0.0250" width="0.0500" height="5.0500" ry="0.0250" fill="currentColor"/>
</g>
<g transform="translate(19.0031, 9.4104)">
<rect x="-0.0250" y="-0.0250" width="0.0500" height="5.0500" ry="0.0250" fill="currentColor"/>
</g>
<g transform="translate(19.0031, 9.4104)">
<line stroke-linejoin="round" stroke-linecap="round" stroke-width="0.0500" stroke="currentColor" x1="0.0000" y1="0" x2="3.0000" y2="0"/>
</g>
<g transform="translate(19.0031, 9.4104)">
<line stroke-linejoin="round" stroke-linecap="round" stroke-width="0.0500" stroke="currentColor" x1="0.0000" y1="1.0000" x2="3.0000" y2="1.0000"/>
</g>
<g transform="translate(19.0031, 9.4104)">
<line stroke-linejoin="round" stroke-linecap="round" stroke-width="0.0500" stroke="currentColor" x1="0.0000" y1="2.0000" x2="3.0000" y2="2.0000"/>
</g>
<g transform="translate(19.0031, 9.4104)">
<line stroke-linejoin="round" stroke-linecap="round" stroke-width="0.0500" stroke="currentColor" x1="0.0000" y1="3.0000" x2="3.0000" y2="3.0000"/>
</g>
<g transform="translate(19.0031, 9.4104)">
<line stroke-linejoin="round" stroke-linecap="round" stroke-width="0.0500" stroke="currentColor" x1="0.0000" y1="4.0000" x2="3.0000" y2="4.0000"/>
</g>
<g color="rgb(0%, 0%, 0%)">
<g transform="translate(19.0031, 13.0104)">
<circle stroke-linejoin="round" stroke-linecap="round" fill="currentColor" stroke="currentColor" stroke-width="0.0500" r="0.2500"/>
</g>
</g>
<g transform="translate(18.6275, 15.6323)">
<text font-family="sans-serif" font-size="1.3198" text-anchor="start" fill="currentColor">
<tspan>3</tspan>
</text>
</g>
<g color="rgb(0%, 0%, 0%)">
<g transform="translate(21.0031, 11.0104)">
<circle stroke-linejoin="round" stroke-linecap="round" fill="currentColor" stroke="currentColor" stroke-width="0.0500" r="0.2500"/>
</g>
</g>
<g transform="translate(20.6275, 15.6664)">
<text font-family="sans-serif" font-size="1.3198" text-anchor="start" fill="currentColor">
<tspan>1</tspan>
</text>
</g>
<g color="rgb(0%, 0%, 0%)">
<g transform="translate(22.0031, 11.0104)">
<circle stroke-linejoin="round" stroke-linecap="round" fill="currentColor" stroke="currentColor" stroke-width="0.0500" r="0.2500"/>
</g>
</g>
<g transform="translate(21.6275, 15.6664)">
<text font-family="sans-serif" font-size="1.3198" text-anchor="start" fill="currentColor">
<tspan>1</tspan>
</text>
</g>
<g transform="translate(19.0031, 9.4104)">
<rect x="-0.0250" y="-0.1250" width="3.0500" height="0.1500" ry="0.0250" fill="currentColor"/>
</g>
<g transform="translate(19.6617, 9.0854)">
<text font-family="sans-serif" font-size="0.8803" text-anchor="start" fill="currentColor">
<tspan>O</tspan>
</text>
</g>
<g transform="translate(19.7529, 7.9367)">
<text font-family="sans-serif" font-size="2.6163" text-anchor="start" fill="currentColor">
<tspan>B</tspan>
</text>
</g>
<g transform="translate(21.4942, 7.9367)">
<text font-family="sans-serif" font-size="2.6163" text-anchor="start" fill="currentColor">
<tspan>m</tspan>
</text>
</g>
<g transform="translate(9.6556, 22.2005)">
<path transform="scale(0.0040, -0.0040)" d="M216 -312c0 -10 -8 -19 -18 -19s-19 9 -19 19v145l-83 -31v-158c0 -10 -9 -19 -19 -19s-18 9 -18 19v145l-32 -12c-2 -1 -5 -1 -7 -1c-11 0 -20 9 -20 20v60c0 8 5 16 13 19l46 16v160l-32 -11c-2 -1 -5 -1 -7 -1c-11 0 -20 9 -20 20v60c0 8 5 15 13 18l46 17v158
c0 10 8 19 18 19s19 -9 19 -19v-145l83 31v158c0 10 9 19 19 19s18 -9 18 -19v-145l32 12c2 1 5 1 7 1c11 0 20 -9 20 -20v-60c0 -8 -5 -16 -13 -19l-46 -16v-160l32 11c2 1 5 1 7 1c11 0 20 -9 20 -20v-60c0 -8 -5 -15 -13 -18l-46 -17v-158zM96 65v-160l83 30v160z" fill="currentColor"/>
</g>
<g transform="translate(12.3896, 21.2005)">
<path transform="scale(0.0040, -0.0040)" d="M213 112c-50 0 -69 -43 -69 -88c0 -77 57 -136 134 -136c50 0 69 43 69 88c0 77 -57 136 -134 136zM491 0c0 -43 -34 -75 -72 -96c-53 -29 -114 -40 -174 -40s-120 11 -173 40c-38 21 -72 53 -72 96s34 75 72 96c53 29 113 40 173 40s121 -11 174 -40
c38 -21 72 -53 72 -96z" fill="currentColor"/>
</g>
<g transform="translate(12.3896, 22.2005)">
<path transform="scale(0.0040, -0.0040)" d="M213 112c-50 0 -69 -43 -69 -88c0 -77 57 -136 134 -136c50 0 69 43 69 88c0 77 -57 136 -134 136zM491 0c0 -43 -34 -75 -72 -96c-53 -29 -114 -40 -174 -40s-120 11 -173 40c-38 21 -72 53 -72 96s34 75 72 96c53 29 113 40 173 40s121 -11 174 -40
c38 -21 72 -53 72 -96z" fill="currentColor"/>
</g>
<g transform="translate(44.2580, 21.2005)">
<path transform="scale(0.0040, -0.0040)" d="M213 112c-50 0 -69 -43 -69 -88c0 -77 57 -136 134 -136c50 0 69 43 69 88c0 77 -57 136 -134 136zM491 0c0 -43 -34 -75 -72 -96c-53 -29 -114 -40 -174 -40s-120 11 -173 40c-38 21 -72 53 -72 96s34 75 72 96c53 29 113 40 173 40s121 -11 174 -40
c38 -21 72 -53 72 -96z" fill="currentColor"/>
</g>
<g transform="translate(44.2580, 20.2005)">
<path transform="scale(0.0040, -0.0040)" d="M213 112c-50 0 -69 -43 -69 -88c0 -77 57 -136 134 -136c50 0 69 43 69 88c0 77 -57 136 -134 136zM491 0c0 -43 -34 -75 -72 -96c-53 -29 -114 -40 -174 -40s-120 11 -173 40c-38 21 -72 53 -72 96s34 75 72 96c53 29 113 40 173 40s121 -11 174 -40
c38 -21 72 -53 72 -96z" fill="currentColor"/>
</g>
<g transform="translate(41.5240, 22.2005)">
<path transform="scale(0.0040, -0.0040)" d="M216 -312c0 -10 -8 -19 -18 -19s-19 9 -19 19v145l-83 -31v-158c0 -10 -9 -19 -19 -19s-18 9 -18 19v145l-32 -12c-2 -1 -5 -1 -7 -1c-11 0 -20 9 -20 20v60c0 8 5 16 13 19l46 16v160l-32 -11c-2 -1 -5 -1 -7 -1c-11 0 -20 9 -20 20v60c0 8 5 15 13 18l46 17v158
c0 10 8 19 18 19s19 -9 19 -19v-145l83 31v158c0 10 9 19 19 19s18 -9 18 -19v-145l32 12c2 1 5 1 7 1c11 0 20 -9 20 -20v-60c0 -8 -5 -16 -13 -19l-46 -16v-160l32 11c2 1 5 1 7 1c11 0 20 -9 20 -20v-60c0 -8 -5 -15 -13 -18l-46 -17v-158zM96 65v-160l83 30v160z" fill="currentColor"/>
</g>
<g transform="translate(42.8080, 21.2005)">
<path transform="scale(0.0040, -0.0040)" d="M216 -312c0 -10 -8 -19 -18 -19s-19 9 -19 19v145l-83 -31v-158c0 -10 -9 -19 -19 -19s-18 9 -18 19v145l-32 -12c-2 -1 -5 -1 -7 -1c-11 0 -20 9 -20 20v60c0 8 5 16 13 19l46 16v160l-32 -11c-2 -1 -5 -1 -7 -1c-11 0 -20 9 -20 20v60c0 8 5 15 13 18l46 17v158
c0 10 8 19 18 19s19 -9 19 -19v-145l83 31v158c0 10 9 19 19 19s18 -9 18 -19v-145l32 12c2 1 5 1 7 1c11 0 20 -9 20 -20v-60c0 -8 -5 -16 -13 -19l-46 -16v-160l32 11c2 1 5 1 7 1c11 0 20 -9 20 -20v-60c0 -8 -5 -15 -13 -18l-46 -17v-158zM96 65v-160l83 30v160z" fill="currentColor"/>
</g>
<g transform="translate(44.2580, 22.2005)">
<path transform="scale(0.0040, -0.0040)" d="M213 112c-50 0 -69 -43 -69 -88c0 -77 57 -136 134 -136c50 0 69 43 69 88c0 77 -57 136 -134 136zM491 0c0 -43 -34 -75 -72 -96c-53 -29 -114 -40 -174 -40s-120 11 -173 40c-38 21 -72 53 -72 96s34 75 72 96c53 29 113 40 173 40s121 -11 174 -40
c38 -21 72 -53 72 -96z" fill="currentColor"/>
</g>
<g transform="translate(53.9853, 7.9367)">
<text font-family="sans-serif" font-size="2.6163" text-anchor="start" fill="currentColor">
<tspan>B</tspan>
</text>
</g>
<g transform="translate(55.7267, 6.7475)">
<polygon stroke-linejoin="round" stroke-linecap="round" stroke-width="0.1000" fill="none" stroke="currentColor" points="0.0000 -0.0000 1.0091 -0.0000 0.5045 -0.8678"/>
</g>
<g transform="translate(53.2356, 9.4104)">
<path stroke-width="0.1000" stroke-linejoin="round" stroke-linecap="round" stroke="currentColor" fill="currentColor" d="M1.0000 0.6000C1.2000 0.2000 1.8000 0.2000 2.0000 0.6000C1.8000 0.1000 1.2000 0.1000 1.0000 0.6000z"/>
</g>
<g transform="translate(53.2356, 9.4104)">
<rect x="2.9750" y="-0.0250" width="0.0500" height="5.0500" ry="0.0250" fill="currentColor"/>
</g>
<g transform="translate(53.2356, 9.4104)">
<rect x="1.9750" y="-0.0250" width="0.0500" height="5.0500" ry="0.0250" fill="currentColor"/>
</g>
<g transform="translate(53.2356, 9.4104)">
<rect x="0.9750" y="-0.0250" width="0.0500" height="5.0500" ry="0.0250" fill="currentColor"/>
</g>
<g transform="translate(53.2356, 9.4104)">
<rect x="-0.0250" y="-0.0250" width="0.0500" height="5.0500" ry="0.0250" fill="currentColor"/>
</g>
<g transform="translate(53.2356, 9.4104)">
<line stroke-linejoin="round" stroke-linecap="round" stroke-width="0.0500" stroke="currentColor" x1="0.0000" y1="0" x2="3.0000" y2="0"/>
</g>
<g transform="translate(53.2356, 9.4104)">
<line stroke-linejoin="round" stroke-linecap="round" stroke-width="0.0500" stroke="currentColor" x1="0.0000" y1="1.0000" x2="3.0000" y2="1.0000"/>
</g>
<g transform="translate(53.2356, 9.4104)">
<line stroke-linejoin="round" stroke-linecap="round" stroke-width="0.0500" stroke="currentColor" x1="0.0000" y1="2.0000" x2="3.0000" y2="2.0000"/>
</g>
<g transform="translate(53.2356, 9.4104)">
<line stroke-linejoin="round" stroke-linecap="round" stroke-width="0.0500" stroke="currentColor" x1="0.0000" y1="3.0000" x2="3.0000" y2="3.0000"/>
</g>
<g transform="translate(53.2356, 9.4104)">
<line stroke-linejoin="round" stroke-linecap="round" stroke-width="0.0500" stroke="currentColor" x1="0.0000" y1="4.0000" x2="3.0000" y2="4.0000"/>
</g>
<g color="rgb(0%, 0%, 0%)">
<g transform="translate(53.2356, 13.0104)">
<circle stroke-linejoin="round" stroke-linecap="round" fill="currentColor" stroke="currentColor" stroke-width="0.0500" r="0.2500"/>
</g>
</g>
<g transform="translate(52.8600, 15.7005)">
<text font-family="sans-serif" font-size="1.3198" text-anchor="start" fill="currentColor">
<tspan>4</tspan>
</text>
</g>
<g color="rgb(0%, 0%, 0%)">
<g transform="translate(54.2356, 10.0104)">
<circle stroke-linejoin="round" stroke-linecap="round" fill="currentColor" stroke="currentColor" stroke-width="0.0500" r="0.2500"/>
</g>
</g>
<g transform="translate(53.8600, 15.6664)">
<text font-family="sans-serif" font-size="1.3198" text-anchor="start" fill="currentColor">
<tspan>1</tspan>
</text>
</g>
<g color="rgb(0%, 0%, 0%)">
<g transform="translate(55.2356, 10.0104)">
<circle stroke-linejoin="round" stroke-linecap="round" fill="currentColor" stroke="currentColor" stroke-width="0.0500" r="0.2500"/>
</g>
</g>
<g transform="translate(54.8600, 15.6664)">
<text font-family="sans-serif" font-size="1.3198" text-anchor="start" fill="currentColor">
<tspan>1</tspan>
</text>
</g>
<g color="rgb(0%, 0%, 0%)">
<g transform="translate(56.2356, 11.0104)">
<circle stroke-linejoin="round" stroke-linecap="round" fill="currentColor" stroke="currentColor" stroke-width="0.0500" r="0.2500"/>
</g>
</g>
<g transform="translate(55.8600, 15.6323)">
<text font-family="sans-serif" font-size="1.3198" text-anchor="start" fill="currentColor">
<tspan>2</tspan>
</text>
</g>
<g transform="translate(53.2356, 9.4104)">
<rect x="-0.0250" y="-0.1250" width="3.0500" height="0.1500" ry="0.0250" fill="currentColor"/>
</g>
<g transform="translate(53.9853, 23.2005)">
<path transform="scale(0.0040, -0.0040)" d="M213 112c-50 0 -69 -43 -69 -88c0 -77 57 -136 134 -136c50 0 69 43 69 88c0 77 -57 136 -134 136zM491 0c0 -43 -34 -75 -72 -96c-53 -29 -114 -40 -174 -40s-120 11 -173 40c-38 21 -72 53 -72 96s34 75 72 96c53 29 113 40 173 40s121 -11 174 -40
c38 -21 72 -53 72 -96z" fill="currentColor"/>
</g>
<g transform="translate(53.9853, 22.2005)">
<path transform="scale(0.0040, -0.0040)" d="M213 112c-50 0 -69 -43 -69 -88c0 -77 57 -136 134 -136c50 0 69 43 69 88c0 77 -57 136 -134 136zM491 0c0 -43 -34 -75 -72 -96c-53 -29 -114 -40 -174 -40s-120 11 -173 40c-38 21 -72 53 -72 96s34 75 72 96c53 29 113 40 173 40s121 -11 174 -40
c38 -21 72 -53 72 -96z" fill="currentColor"/>
</g>
<g transform="translate(53.9853, 21.2005)">
<path transform="scale(0.0040, -0.0040)" d="M213 112c-50 0 -69 -43 -69 -88c0 -77 57 -136 134 -136c50 0 69 43 69 88c0 77 -57 136 -134 136zM491 0c0 -43 -34 -75 -72 -96c-53 -29 -114 -40 -174 -40s-120 11 -173 40c-38 21 -72 53 -72 96s34 75 72 96c53 29 113 40 173 40s121 -11 174 -40
c38 -21 72 -53 72 -96z" fill="currentColor"/>
</g>
<g transform="translate(53.9853, 20.2005)">
<path transform="scale(0.0040, -0.0040)" d="M213 112c-50 0 -69 -43 -69 -88c0 -77 57 -136 134 -136c50 0 69 43 69 88c0 77 -57 136 -134 136zM491 0c0 -43 -34 -75 -72 -96c-53 -29 -114 -40 -174 -40s-120 11 -173 40c-38 21 -72 53 -72 96s34 75 72 96c53 29 113 40 173 40s121 -11 174 -40
c38 -21 72 -53 72 -96z" fill="currentColor"/>
</g>
<g transform="translate(35.6107, 22.2005)">
<path transform="scale(0.0040, -0.0040)" d="M213 112c-50 0 -69 -43 -69 -88c0 -77 57 -136 134 -136c50 0 69 43 69 88c0 77 -57 136 -134 136zM491 0c0 -43 -34 -75 -72 -96c-53 -29 -114 -40 -174 -40s-120 11 -173 40c-38 21 -72 53 -72 96s34 75 72 96c53 29 113 40 173 40s121 -11 174 -40
c38 -21 72 -53 72 -96z" fill="currentColor"/>
</g>
<g transform="translate(35.6107, 21.2005)">
<path transform="scale(0.0040, -0.0040)" d="M213 112c-50 0 -69 -43 -69 -88c0 -77 57 -136 134 -136c50 0 69 43 69 88c0 77 -57 136 -134 136zM491 0c0 -43 -34 -75 -72 -96c-53 -29 -114 -40 -174 -40s-120 11 -173 40c-38 21 -72 53 -72 96s34 75 72 96c53 29 113 40 173 40s121 -11 174 -40
c38 -21 72 -53 72 -96z" fill="currentColor"/>
</g>
<g transform="translate(35.6107, 20.2005)">
<path transform="scale(0.0040, -0.0040)" d="M213 112c-50 0 -69 -43 -69 -88c0 -77 57 -136 134 -136c50 0 69 43 69 88c0 77 -57 136 -134 136zM491 0c0 -43 -34 -75 -72 -96c-53 -29 -114 -40 -174 -40s-120 11 -173 40c-38 21 -72 53 -72 96s34 75 72 96c53 29 113 40 173 40s121 -11 174 -40
c38 -21 72 -53 72 -96z" fill="currentColor"/>
</g>
<g transform="translate(34.4607, 20.2005)">
<path transform="scale(0.0040, -0.0040)" d="M27 41l-1 -66v-11c0 -22 1 -44 4 -66c45 38 93 80 93 139c0 33 -14 67 -43 67c-31 0 -52 -30 -53 -63zM-15 -138l-12 595c8 5 18 8 27 8s19 -3 27 -8l-7 -345c25 21 58 34 91 34c52 0 89 -48 89 -102c0 -80 -86 -117 -147 -169c-15 -13 -24 -38 -45 -38
c-13 0 -23 11 -23 25z" fill="currentColor"/>
</g>
<g transform="translate(51.4713, 22.2005)">
<path transform="scale(0.0040, -0.0040)" d="M216 -312c0 -10 -8 -19 -18 -19s-19 9 -19 19v145l-83 -31v-158c0 -10 -9 -19 -19 -19s-18 9 -18 19v145l-32 -12c-2 -1 -5 -1 -7 -1c-11 0 -20 9 -20 20v60c0 8 5 16 13 19l46 16v160l-32 -11c-2 -1 -5 -1 -7 -1c-11 0 -20 9 -20 20v60c0 8 5 15 13 18l46 17v158
c0 10 8 19 18 19s19 -9 19 -19v-145l83 31v158c0 10 9 19 19 19s18 -9 18 -19v-145l32 12c2 1 5 1 7 1c11 0 20 -9 20 -20v-60c0 -8 -5 -16 -13 -19l-46 -16v-160l32 11c2 1 5 1 7 1c11 0 20 -9 20 -20v-60c0 -8 -5 -15 -13 -18l-46 -17v-158zM96 65v-160l83 30v160z" fill="currentColor"/>
</g>
<g transform="translate(44.2580, 7.9367)">
<text font-family="sans-serif" font-size="2.6163" text-anchor="start" fill="currentColor">
<tspan>B</tspan>
</text>
</g>
<g transform="translate(45.9993, 6.7475)">
<text font-family="sans-serif" font-size="1.8500" text-anchor="start" fill="currentColor">
<tspan>7</tspan>
</text>
</g>
<g transform="translate(52.5353, 20.2005)">
<path transform="scale(0.0040, -0.0040)" d="M216 -312c0 -10 -8 -19 -18 -19s-19 9 -19 19v145l-83 -31v-158c0 -10 -9 -19 -19 -19s-18 9 -18 19v145l-32 -12c-2 -1 -5 -1 -7 -1c-11 0 -20 9 -20 20v60c0 8 5 16 13 19l46 16v160l-32 -11c-2 -1 -5 -1 -7 -1c-11 0 -20 9 -20 20v60c0 8 5 15 13 18l46 17v158
c0 10 8 19 18 19s19 -9 19 -19v-145l83 31v158c0 10 9 19 19 19s18 -9 18 -19v-145l32 12c2 1 5 1 7 1c11 0 20 -9 20 -20v-60c0 -8 -5 -16 -13 -19l-46 -16v-160l32 11c2 1 5 1 7 1c11 0 20 -9 20 -20v-60c0 -8 -5 -15 -13 -18l-46 -17v-158zM96 65v-160l83 30v160z" fill="currentColor"/>
</g>
<g transform="translate(43.2302, 9.4104)">
<path stroke-width="0.1000" stroke-linejoin="round" stroke-linecap="round" stroke="currentColor" fill="currentColor" d="M0 0.6000C0.2000 0.2000 0.8000 0.2000 1.0000 0.6000C0.8000 0.1000 0.2000 0.1000 0 0.6000z"/>
</g>
<g transform="translate(43.2302, 9.4104)">
<rect x="2.9750" y="-0.0250" width="0.0500" height="5.0500" ry="0.0250" fill="currentColor"/>
</g>
<g transform="translate(43.2302, 9.4104)">
<rect x="1.9750" y="-0.0250" width="0.0500" height="5.0500" ry="0.0250" fill="currentColor"/>
</g>
<g transform="translate(43.2302, 9.4104)">
<rect x="0.9750" y="-0.0250" width="0.0500" height="5.0500" ry="0.0250" fill="currentColor"/>
</g>
<g transform="translate(43.2302, 9.4104)">
<rect x="-0.0250" y="-0.0250" width="0.0500" height="5.0500" ry="0.0250" fill="currentColor"/>
</g>
<g transform="translate(43.2302, 9.4104)">
<line stroke-linejoin="round" stroke-linecap="round" stroke-width="0.0500" stroke="currentColor" x1="0.0000" y1="0" x2="3.0000" y2="0"/>
</g>
<g transform="translate(43.2302, 9.4104)">
<line stroke-linejoin="round" stroke-linecap="round" stroke-width="0.0500" stroke="currentColor" x1="0.0000" y1="1.0000" x2="3.0000" y2="1.0000"/>
</g>
<g transform="translate(43.2302, 9.4104)">
<line stroke-linejoin="round" stroke-linecap="round" stroke-width="0.0500" stroke="currentColor" x1="0.0000" y1="2.0000" x2="3.0000" y2="2.0000"/>
</g>
<g transform="translate(43.2302, 9.4104)">
<line stroke-linejoin="round" stroke-linecap="round" stroke-width="0.0500" stroke="currentColor" x1="0.0000" y1="3.0000" x2="3.0000" y2="3.0000"/>
</g>
<g transform="translate(43.2302, 9.4104)">
<line stroke-linejoin="round" stroke-linecap="round" stroke-width="0.0500" stroke="currentColor" x1="0.0000" y1="4.0000" x2="3.0000" y2="4.0000"/>
</g>
<g color="rgb(0%, 0%, 0%)">
<g transform="translate(43.2302, 10.0104)">
<circle stroke-linejoin="round" stroke-linecap="round" fill="currentColor" stroke="currentColor" stroke-width="0.0500" r="0.2500"/>
</g>
</g>
<g transform="translate(42.8546, 15.6664)">
<text font-family="sans-serif" font-size="1.3198" text-anchor="start" fill="currentColor">
<tspan>1</tspan>
</text>
</g>
<g color="rgb(0%, 0%, 0%)">
<g transform="translate(44.2302, 10.0104)">
<circle stroke-linejoin="round" stroke-linecap="round" fill="currentColor" stroke="currentColor" stroke-width="0.0500" r="0.2500"/>
</g>
</g>
<g transform="translate(43.8546, 15.6664)">
<text font-family="sans-serif" font-size="1.3198" text-anchor="start" fill="currentColor">
<tspan>1</tspan>
</text>
</g>
<g color="rgb(0%, 0%, 0%)">
<g transform="translate(45.2302, 12.0104)">
<circle stroke-linejoin="round" stroke-linecap="round" fill="currentColor" stroke="currentColor" stroke-width="0.0500" r="0.2500"/>
</g>
</g>
<g transform="translate(44.8546, 15.6323)">
<text font-family="sans-serif" font-size="1.3198" text-anchor="start" fill="currentColor">
<tspan>3</tspan>
</text>
</g>
<g color="rgb(0%, 0%, 0%)">
<g transform="translate(46.2302, 11.0104)">
<circle stroke-linejoin="round" stroke-linecap="round" fill="currentColor" stroke="currentColor" stroke-width="0.0500" r="0.2500"/>
</g>
</g>
<g transform="translate(45.8546, 15.6323)">
<text font-family="sans-serif" font-size="1.3198" text-anchor="start" fill="currentColor">
<tspan>2</tspan>
</text>
</g>
<g transform="translate(46.7473, 10.8201)">
<text font-family="sans-serif" font-size="1.1003" text-anchor="start" fill="currentColor">
<tspan>iv</tspan>
</text>
</g>
<g transform="translate(44.2580, 23.2005)">
<path transform="scale(0.0040, -0.0040)" d="M213 112c-50 0 -69 -43 -69 -88c0 -77 57 -136 134 -136c50 0 69 43 69 88c0 77 -57 136 -134 136zM491 0c0 -43 -34 -75 -72 -96c-53 -29 -114 -40 -174 -40s-120 11 -173 40c-38 21 -72 53 -72 96s34 75 72 96c53 29 113 40 173 40s121 -11 174 -40
c38 -21 72 -53 72 -96z" fill="currentColor"/>
</g>
<g transform="translate(50.1713, 21.2005)">
<path transform="scale(0.0040, -0.0040)" d="M216 -312c0 -10 -8 -19 -18 -19s-19 9 -19 19v145l-83 -31v-158c0 -10 -9 -19 -19 -19s-18 9 -18 19v145l-32 -12c-2 -1 -5 -1 -7 -1c-11 0 -20 9 -20 20v60c0 8 5 16 13 19l46 16v160l-32 -11c-2 -1 -5 -1 -7 -1c-11 0 -20 9 -20 20v60c0 8 5 15 13 18l46 17v158
c0 10 8 19 18 19s19 -9 19 -19v-145l83 31v158c0 10 9 19 19 19s18 -9 18 -19v-145l32 12c2 1 5 1 7 1c11 0 20 -9 20 -20v-60c0 -8 -5 -16 -13 -19l-46 -16v-160l32 11c2 1 5 1 7 1c11 0 20 -9 20 -20v-60c0 -8 -5 -15 -13 -18l-46 -17v-158zM96 65v-160l83 30v160z" fill="currentColor"/>
</g>
</svg>
