<svg xmlns="http://www.w3.org/2000/svg" xmlns:xlink="http://www.w3.org/1999/xlink" version="1.2" width="210.00mm" height="297.00mm" viewBox="0 0 119.5016 169.0094">
<style type="text/css">
<![CDATA[
tspan { white-space: pre; }
]]>
</style>
<!-- Page: 2/2 -->
<g transform="translate(5.6906, 4.3817)">
<text font-family="serif" font-size="2.2001" text-anchor="start" fill="currentColor">
<tspan>2</tspan>
</text>
</g>
<g transform="translate(69.1272, 9.4104)">
<rect x="2.9750" y="-0.0250" width="0.0500" height="5.0500" ry="0.0250" fill="currentColor"/>
</g>
<g transform="translate(69.1272, 9.4104)">
<rect x="1.9750" y="-0.0250" width="0.0500" height="5.0500" ry="0.0250" fill="currentColor"/>
</g>
<g transform="translate(69.1272, 9.4104)">
<rect x="0.9750" y="-0.0250" width="0.0500" height="5.0500" ry="0.0250" fill="currentColor"/>
</g>
<g transform="translate(69.1272, 9.4104)">
<rect x="-0.0250" y="-0.0250" width="0.0500" height="5.0500" ry="0.0250" fill="currentColor"/>
</g>
<g transform="translate(69.1272, 9.4104)">
<line stroke-linejoin="round" stroke-linecap="round" stroke-width="0.0500" stroke="currentColor" x1="0.0000" y1="0" x2="3.0000" y2="0"/>
</g>
<g transform="translate(69.1272, 9.4104)">
<line stroke-linejoin="round" stroke-linecap="round" stroke-width="0.0500" stroke="currentColor" x1="0.0000" y1="1.0000" x2="3.0000" y2="1.0000"/>
</g>
<g transform="translate(69.1272, 9.4104)">
<line stroke-linejoin="round" stroke-linecap="round" stroke-width="0.0500" stroke="currentColor" x1="0.0000" y1="2.0000" x2="3.0000" y2="2.0000"/>
</g>
<g transform="translate(69.1272, 9.4104)">
<line stroke-linejoin="round" stroke-linecap="round" stroke-width="0.0500" stroke="currentColor" x1="0.0000" y1="3.0000" x2="3.0000" y2="3.0000"/>
</g>
<g transform="translate(69.1272, 9.4104)">
<line stroke-linejoin="round" stroke-linecap="round" stroke-width="0.0500" stroke="currentColor" x1="0.0000" y1="4.0000" x2="3.0000" y2="4.0000"/>
</g>
<g color="rgb(0%, 0%, 0%)">
<g transform="translate(69.1272, 10.9354)">
<circle stroke-linejoin="round" stroke-linecap="round" fill="currentColor" stroke="currentColor" stroke-width="0.0500" r="0.4250"/>
</g>
</g>
<g color="rgb(100.0000%, 100.0000%, 100.0000%)">
<g transform="scale(0.8542, 0.8542)">
<g transform="translate(80.6675, 13.1429)">
<text font-family="sans-serif" font-size="0.9353" text-anchor="start" fill="currentColor">
<tspan>2</tspan>
</text>
</g>
</g>
</g>
<g color="rgb(0%, 0%, 0%)">
<g transform="translate(71.1272, 10.9354)">
<circle stroke-linejoin="round" stroke-linecap="round" fill="currentColor" stroke="currentColor" stroke-width="0.0500" r="0.4250"/>
</g>
</g>
<g color="rgb(100.0000%, 100.0000%, 100.0000%)">
<g transform="scale(0.8542, 0.8542)">
<g transform="translate(83.0088, 13.1429)">
<text font-family="sans-serif" font-size="0.9353" text-anchor="start" fill="currentColor">
<tspan>3</tspan>
</text>
</g>
</g>
</g>
<g color="rgb(0%, 0%, 0%)">
<g transform="translate(72.1272, 9.9354)">
<circle stroke-linejoin="round" stroke-linecap="round" fill="currentColor" stroke="currentColor" stroke-width="0.0500" r="0.4250"/>
</g>
</g>
<g color="rgb(100.0000%, 100.0000%, 100.0000%)">
<g transform="scale(0.8542, 0.8542)">
<g transform="translate(84.1795, 11.9723)">
<text font-family="sans-serif" font-size="0.9353" text-anchor="start" fill="currentColor">
<tspan>1</tspan>
</text>
</g>
</g>
</g>
<g transform="translate(69.1272, 9.4104)">
<rect x="-0.0250" y="-0.1250" width="3.0500" height="0.1500" ry="0.0250" fill="currentColor"/>
</g>
<g transform="translate(69.7858, 9.0854)">
<text font-family="sans-serif" font-size="0.8803" text-anchor="start" fill="currentColor">
<tspan>O</tspan>
</text>
</g>
<g transform="translate(34.0010, 7.9367)">
<text font-family="sans-serif" font-size="2.6163" text-anchor="start" fill="currentColor">
<tspan>B</tspan>
</text>
</g>
<g transform="translate(35.7423, 7.9367)">
<text font-family="sans-serif" font-size="3.2965" text-anchor="start" fill="currentColor">
<tspan>°</tspan>
</text>
</g>
<g transform="translate(37.0739, 6.7475)">
<text font-family="sans-serif" font-size="1.8500" text-anchor="start" fill="currentColor">
<tspan>7</tspan>
</text>
</g>
<g transform="translate(33.2810, 9.4104)">
<rect x="2.9750" y="-0.0250" width="0.0500" height="5.0500" ry="0.0250" fill="currentColor"/>
</g>
<g transform="translate(33.2810, 9.4104)">
<rect x="1.9750" y="-0.0250" width="0.0500" height="5.0500" ry="0.0250" fill="currentColor"/>
</g>
<g transform="translate(33.2810, 9.4104)">
<rect x="0.9750" y="-0.0250" width="0.0500" height="5.0500" ry="0.0250" fill="currentColor"/>
</g>
<g transform="translate(33.2810, 9.4104)">
<rect x="-0.0250" y="-0.0250" width="0.0500" height="5.0500" ry="0.0250" fill="currentColor"/>
</g>
<g transform="translate(33.2810, 9.4104)">
<line stroke-linejoin="round" stroke-linecap="round" stroke-width="0.0500" stroke="currentColor" x1="0.0000" y1="0" x2="3.0000" y2="0"/>
</g>
<g transform="translate(33.2810, 9.4104)">
<line stroke-linejoin="round" stroke-linecap="round" stroke-width="0.0500" stroke="currentColor" x1="0.0000" y1="1.0000" x2="3.0000" y2="1.0000"/>
</g>
<g transform="translate(33.2810, 9.4104)">
<line stroke-linejoin="round" stroke-linecap="round" stroke-width="0.0500" stroke="currentColor" x1="0.0000" y1="2.0000" x2="3.0000" y2="2.0000"/>
</g>
<g transform="translate(33.2810, 9.4104)">
<line stroke-linejoin="round" stroke-linecap="round" stroke-width="0.0500" stroke="currentColor" x1="0.0000" y1="3.0000" x2="3.0000" y2="3.0000"/>
</g>
<g transform="translate(33.2810, 9.4104)">
<line stroke-linejoin="round" stroke-linecap="round" stroke-width="0.0500" stroke="currentColor" x1="0.0000" y1="4.0000" x2="3.0000" y2="4.0000"/>
</g>
<g color="rgb(0%, 0%, 0%)">
<g transform="translate(33.2810, 9.9354)">
<circle stroke-linejoin="round" stroke-linecap="round" fill="currentColor" stroke="currentColor" stroke-width="0.0500" r="0.4250"/>
</g>
</g>
<g color="rgb(100.0000%, 100.0000%, 100.0000%)">
<g transform="scale(0.8542, 0.8542)">
<g transform="translate(38.7042, 11.9723)">
<text font-family="sans-serif" font-size="0.9353" text-anchor="start" fill="currentColor">
<tspan>1</tspan>
</text>
</g>
</g>
</g>
<g color="rgb(0%, 0%, 0%)">
<g transform="translate(35.2810, 10.9354)">
<circle stroke-linejoin="round" stroke-linecap="round" fill="currentColor" stroke="currentColor" stroke-width="0.0500" r="0.4250"/>
</g>
</g>
<g color="rgb(100.0000%, 100.0000%, 100.0000%)">
<g transform="scale(0.8542, 0.8542)">
<g transform="translate(41.0455, 13.1429)">
<text font-family="sans-serif" font-size="0.9353" text-anchor="start" fill="currentColor">
<tspan>3</tspan>
</text>
</g>
</g>
</g>
<g color="rgb(0%, 0%, 0%)">
<g transform="translate(36.2810, 9.9354)">
<circle stroke-linejoin="round" stroke-linecap="round" fill="currentColor" stroke="currentColor" stroke-width="0.0500" r="0.4250"/>
</g>
</g>
<g color="rgb(100.0000%, 100.0000%, 100.0000%)">
<g transform="scale(0.8542, 0.8542)">
<g transform="translate(42.2161, 11.9723)">
<text font-family="sans-serif" font-size="0.9353" text-anchor="start" fill="currentColor">
<tspan>2</tspan>
</text>
</g>
</g>
</g>
<g transform="translate(33.2810, 9.4104)">
<rect x="-0.0250" y="-0.1250" width="3.0500" height="0.1500" ry="0.0250" fill="currentColor"/>
</g>
<g transform="translate(33.9395, 9.0854)">
<text font-family="sans-serif" font-size="0.8803" text-anchor="start" fill="currentColor">
<tspan>O</tspan>
</text>
</g>
<g transform="translate(42.9625, 7.9367)">
<text font-family="sans-serif" font-size="2.6163" text-anchor="start" fill="currentColor">
<tspan>B</tspan>
</text>
</g>
<g transform="translate(44.7038, 6.7475)">
<text font-family="sans-serif" font-size="1.8500" text-anchor="start" fill="currentColor">
<tspan>7</tspan>
</text>
</g>
<g transform="translate(41.9868, 9.4104)">
<path stroke-width="0.1000" stroke-linejoin="round" stroke-linecap="round" stroke="currentColor" fill="currentColor" d="M0 0.5250C0.2000 0.1250 0.8000 0.1250 1.0000 0.5250C0.8000 0.0250 0.2000 0.0250 0 0.5250z"/>
</g>
<g transform="translate(41.9868, 9.4104)">
<rect x="2.9750" y="-0.0250" width="0.0500" height="5.0500" ry="0.0250" fill="currentColor"/>
</g>
<g transform="translate(41.9868, 9.4104)">
<rect x="1.9750" y="-0.0250" width="0.0500" height="5.0500" ry="0.0250" fill="currentColor"/>
</g>
<g transform="translate(41.9868, 9.4104)">
<rect x="0.9750" y="-0.0250" width="0.0500" height="5.0500" ry="0.0250" fill="currentColor"/>
</g>
<g transform="translate(41.9868, 9.4104)">
<rect x="-0.0250" y="-0.0250" width="0.0500" height="5.0500" ry="0.0250" fill="currentColor"/>
</g>
<g transform="translate(41.9868, 9.4104)">
<line stroke-linejoin="round" stroke-linecap="round" stroke-width="0.0500" stroke="currentColor" x1="0.0000" y1="0" x2="3.0000" y2="0"/>
</g>
<g transform="translate(41.9868, 9.4104)">
<line stroke-linejoin="round" stroke-linecap="round" stroke-width="0.0500" stroke="currentColor" x1="0.0000" y1="1.0000" x2="3.0000" y2="1.0000"/>
</g>
<g transform="translate(41.9868, 9.4104)">
<line stroke-linejoin="round" stroke-linecap="round" stroke-width="0.0500" stroke="currentColor" x1="0.0000" y1="2.0000" x2="3.0000" y2="2.0000"/>
</g>
<g transform="translate(41.9868, 9.4104)">
<line stroke-linejoin="round" stroke-linecap="round" stroke-width="0.0500" stroke="currentColor" x1="0.0000" y1="3.0000" x2="3.0000" y2="3.0000"/>
</g>
<g transform="translate(41.9868, 9.4104)">
<line stroke-linejoin="round" stroke-linecap="round" stroke-width="0.0500" stroke="currentColor" x1="0.0000" y1="4.0000" x2="3.0000" y2="4.0000"/>
</g>
<g color="rgb(0%, 0%, 0%)">
<g transform="translate(41.9868, 9.9354)">
<circle stroke-linejoin="round" stroke-linecap="round" fill="currentColor" stroke="currentColor" stroke-width="0.0500" r="0.4250"/>
</g>
</g>
<g color="rgb(100.0000%, 100.0000%, 100.0000%)">
<g transform="scale(0.8542, 0.8542)">
<g transform="translate(48.8957, 11.9723)">
<text font-family="sans-serif" font-size="0.9353" text-anchor="start" fill="currentColor">
<tspan>1</tspan>
</text>
</g>
</g>
</g>
<g color="rgb(0%, 0%, 0%)">
<g transform="translate(42.9868, 9.9354)">
<circle stroke-linejoin="round" stroke-linecap="round" fill="currentColor" stroke="currentColor" stroke-width="0.0500" r="0.4250"/>
</g>
</g>
<g color="rgb(100.0000%, 100.0000%, 100.0000%)">
<g transform="scale(0.8542, 0.8542)">
<g transform="translate(50.0663, 11.9723)">
<text font-family="sans-serif" font-size="0.9353" text-anchor="start" fill="currentColor">
<tspan>1</tspan>
</text>
</g>
</g>
</g>
<g color="rgb(0%, 0%, 0%)">
<g transform="translate(43.9868, 11.9354)">
<circle stroke-linejoin="round" stroke-linecap="round" fill="currentColor" stroke="currentColor" stroke-width="0.0500" r="0.4250"/>
</g>
</g>
<g color="rgb(100.0000%, 100.0000%, 100.0000%)">
<g transform="scale(0.8542, 0.8542)">
<g transform="translate(51.2370, 14.3136)">
<text font-family="sans-serif" font-size="0.9353" text-anchor="start" fill="currentColor">
<tspan>3</tspan>
</text>
</g>
</g>
</g>
<g color="rgb(0%, 0%, 0%)">
<g transform="translate(44.9868, 10.9354)">
<circle stroke-linejoin="round" stroke-linecap="round" fill="currentColor" stroke="currentColor" stroke-width="0.0500" r="0.4250"/>
</g>
</g>
<g color="rgb(100.0000%, 100.0000%, 100.0000%)">
<g transform="scale(0.8542, 0.8542)">
<g transform="translate(52.4076, 13.1429)">
<text font-family="sans-serif" font-size="0.9353" text-anchor="start" fill="currentColor">
<tspan>2</tspan>
</text>
</g>
</g>
</g>
<g transform="translate(45.5039, 10.8201)">
<text font-family="sans-serif" font-size="1.1003" text-anchor="start" fill="currentColor">
<tspan>iv</tspan>
</text>
</g>
<g transform="translate(51.9241, 7.9367)">
<text font-family="sans-serif" font-size="2.6163" text-anchor="start" fill="currentColor">
<tspan>B</tspan>
</text>
</g>
<g transform="translate(53.6654, 6.7475)">
<polygon stroke-linejoin="round" stroke-linecap="round" stroke-width="0.1000" fill="none" stroke="currentColor" points="0.0000 -0.0000 1.0091 -0.0000 0.5045 -0.8678"/>
</g>
<g transform="translate(51.2041, 9.4104)">
<path stroke-width="0.1000" stroke-linejoin="round" stroke-linecap="round" stroke="currentColor" fill="currentColor" d="M1.0000 0.5250C1.2000 0.1250 1.8000 0.1250 2.0000 0.5250C1.8000 0.0250 1.2000 0.0250 1.0000 0.5250z"/>
</g>
<g transform="translate(51.2041, 9.4104)">
<rect x="2.9750" y="-0.0250" width="0.0500" height="5.0500" ry="0.0250" fill="currentColor"/>
</g>
<g transform="translate(51.2041, 9.4104)">
<rect x="1.9750" y="-0.0250" width="0.0500" height="5.0500" ry="0.0250" fill="currentColor"/>
</g>
<g transform="translate(51.2041, 9.4104)">
<rect x="0.9750" y="-0.0250" width="0.0500" height="5.0500" ry="0.0250" fill="currentColor"/>
</g>
<g transform="translate(51.2041, 9.4104)">
<rect x="-0.0250" y="-0.0250" width="0.0500" height="5.0500" ry="0.0250" fill="currentColor"/>
</g>
<g transform="translate(51.2041, 9.4104)">
<line stroke-linejoin="round" stroke-linecap="round" stroke-width="0.0500" stroke="currentColor" x1="0.0000" y1="0" x2="3.0000" y2="0"/>
</g>
<g transform="translate(51.2041, 9.4104)">
<line stroke-linejoin="round" stroke-linecap="round" stroke-width="0.0500" stroke="currentColor" x1="0.0000" y1="1.0000" x2="3.0000" y2="1.0000"/>
</g>
<g transform="translate(51.2041, 9.4104)">
<line stroke-linejoin="round" stroke-linecap="round" stroke-width="0.0500" stroke="currentColor" x1="0.0000" y1="2.0000" x2="3.0000" y2="2.0000"/>
</g>
<g transform="translate(51.2041, 9.4104)">
<line stroke-linejoin="round" stroke-linecap="round" stroke-width="0.0500" stroke="currentColor" x1="0.0000" y1="3.0000" x2="3.0000" y2="3.0000"/>
</g>
<g transform="translate(51.2041, 9.4104)">
<line stroke-linejoin="round" stroke-linecap="round" stroke-width="0.0500" stroke="currentColor" x1="0.0000" y1="4.0000" x2="3.0000" y2="4.0000"/>
</g>
<g color="rgb(0%, 0%, 0%)">
<g transform="translate(51.2041, 12.9354)">
<circle stroke-linejoin="round" stroke-linecap="round" fill="currentColor" stroke="currentColor" stroke-width="0.0500" r="0.4250"/>
</g>
</g>
<g color="rgb(100.0000%, 100.0000%, 100.0000%)">
<g transform="scale(0.8542, 0.8542)">
<g transform="translate(59.6859, 15.4842)">
<text font-family="sans-serif" font-size="0.9353" text-anchor="start" fill="currentColor">
<tspan>4</tspan>
</text>
</g>
</g>
</g>
<g color="rgb(0%, 0%, 0%)">
<g transform="translate(52.2041, 9.9354)">
<circle stroke-linejoin="round" stroke-linecap="round" fill="currentColor" stroke="currentColor" stroke-width="0.0500" r="0.4250"/>
</g>
</g>
<g color="rgb(100.0000%, 100.0000%, 100.0000%)">
<g transform="scale(0.8542, 0.8542)">
<g transform="translate(60.8565, 11.9723)">
<text font-family="sans-serif" font-size="0.9353" text-anchor="start" fill="currentColor">
<tspan>1</tspan>
</text>
</g>
</g>
</g>
<g color="rgb(0%, 0%, 0%)">
<g transform="translate(53.2041, 9.9354)">
<circle stroke-linejoin="round" stroke-linecap="round" fill="currentColor" stroke="currentColor" stroke-width="0.0500" r="0.4250"/>
</g>
</g>
<g color="rgb(100.0000%, 100.0000%, 100.0000%)">
<g transform="scale(0.8542, 0.8542)">
<g transform="translate(62.0271, 11.9723)">
<text font-family="sans-serif" font-size="0.9353" text-anchor="start" fill="currentColor">
<tspan>1</tspan>
</text>
</g>
</g>
</g>
<g color="rgb(0%, 0%, 0%)">
<g transform="translate(54.2041, 10.9354)">
<circle stroke-linejoin="round" stroke-linecap="round" fill="currentColor" stroke="currentColor" stroke-width="0.0500" r="0.4250"/>
</g>
</g>
<g color="rgb(100.0000%, 100.0000%, 100.0000%)">
<g transform="scale(0.8542, 0.8542)">
<g transform="translate(63.1978, 13.1429)">
<text font-family="sans-serif" font-size="0.9353" text-anchor="start" fill="currentColor">
<tspan>2</tspan>
</text>
</g>
</g>
</g>
<g transform="translate(51.2041, 9.4104)">
<rect x="-0.0250" y="-0.1250" width="3.0500" height="0.1500" ry="0.0250" fill="currentColor"/>
</g>
<g transform="translate(60.8856, 7.9367)">
<text font-family="sans-serif" font-size="2.6163" text-anchor="start" fill="currentColor">
<tspan>B</tspan>
</text>
</g>
<g transform="translate(62.6270, 7.9367)">
<text font-family="sans-serif" font-size="2.6163" text-anchor="start" fill="currentColor">
<tspan>m</tspan>
</text>
</g>
<g transform="translate(64.8121, 6.7475)">
<text font-family="sans-serif" font-size="1.8500" text-anchor="start" fill="currentColor">
<tspan>7</tspan>
</text>
</g>
<g transform="translate(60.1656, 9.4104)">
<rect x="2.9750" y="-0.0250" width="0.0500" height="5.0500" ry="0.0250" fill="currentColor"/>
</g>
<g transform="translate(60.1656, 9.4104)">
<rect x="1.9750" y="-0.0250" width="0.0500" height="5.0500" ry="0.0250" fill="currentColor"/>
</g>
<g transform="translate(60.1656, 9.4104)">
<rect x="0.9750" y="-0.0250" width="0.0500" height="5.0500" ry="0.0250" fill="currentColor"/>
</g>
<g transform="translate(60.1656, 9.4104)">
<rect x="-0.0250" y="-0.0250" width="0.0500" height="5.0500" ry="0.0250" fill="currentColor"/>
</g>
<g transform="translate(60.1656, 9.4104)">
<line stroke-linejoin="round" stroke-linecap="round" stroke-width="0.0500" stroke="currentColor" x1="0.0000" y1="0" x2="3.0000" y2="0"/>
</g>
<g transform="translate(60.1656, 9.4104)">
<line stroke-linejoin="round" stroke-linecap="round" stroke-width="0.0500" stroke="currentColor" x1="0.0000" y1="1.0000" x2="3.0000" y2="1.0000"/>
</g>
<g transform="translate(60.1656, 9.4104)">
<line stroke-linejoin="round" stroke-linecap="round" stroke-width="0.0500" stroke="currentColor" x1="0.0000" y1="2.0000" x2="3.0000" y2="2.0000"/>
</g>
<g transform="translate(60.1656, 9.4104)">
<line stroke-linejoin="round" stroke-linecap="round" stroke-width="0.0500" stroke="currentColor" x1="0.0000" y1="3.0000" x2="3.0000" y2="3.0000"/>
</g>
<g transform="translate(60.1656, 9.4104)">
<line stroke-linejoin="round" stroke-linecap="round" stroke-width="0.0500" stroke="currentColor" x1="0.0000" y1="4.0000" x2="3.0000" y2="4.0000"/>
</g>
<g color="rgb(0%, 0%, 0%)">
<g transform="translate(60.1656, 12.9354)">
<circle stroke-linejoin="round" stroke-linecap="round" fill="currentColor" stroke="currentColor" stroke-width="0.0500" r="0.4250"/>
</g>
</g>
<g color="rgb(100.0000%, 100.0000%, 100.0000%)">
<g transform="scale(0.8542, 0.8542)">
<g transform="translate(70.1767, 15.4842)">
<text font-family="sans-serif" font-size="0.9353" text-anchor="start" fill="currentColor">
<tspan>3</tspan>
</text>
</g>
</g>
</g>
<g color="rgb(0%, 0%, 0%)">
<g transform="translate(63.1656, 10.9354)">
<circle stroke-linejoin="round" stroke-linecap="round" fill="currentColor" stroke="currentColor" stroke-width="0.0500" r="0.4250"/>
</g>
</g>
<g color="rgb(100.0000%, 100.0000%, 100.0000%)">
<g transform="scale(0.8542, 0.8542)">
<g transform="translate(73.6886, 13.1429)">
<text font-family="sans-serif" font-size="0.9353" text-anchor="start" fill="currentColor">
<tspan>1</tspan>
</text>
</g>
</g>
</g>
<g transform="translate(60.1656, 9.4104)">
<rect x="-0.0250" y="-0.1250" width="3.0500" height="0.1500" ry="0.0250" fill="currentColor"/>
</g>
<g transform="translate(60.8242, 9.0854)">
<text font-family="sans-serif" font-size="0.8803" text-anchor="start" fill="currentColor">
<tspan>O</tspan>
</text>
</g>
<g transform="translate(61.8242, 9.0854)">
<text font-family="sans-serif" font-size="0.8803" text-anchor="start" fill="currentColor">
<tspan>O</tspan>
</text>
</g>
<g transform="translate(69.8472, 7.9367)">
<text font-family="sans-serif" font-size="2.6163" text-anchor="start" fill="currentColor">
<tspan>B</tspan>
</text>
</g>
<g transform="translate(71.5885, 6.7475)">
<text font-family="sans-serif" font-size="1.8500" text-anchor="start" fill="currentColor">
<tspan>ø</tspan>
</text>
</g>
<g transform="translate(78.8088, 7.9367)">
<text font-family="sans-serif" font-size="2.6163" text-anchor="start" fill="currentColor">
<tspan>B</tspan>
</text>
</g>
<g transform="translate(80.5501, 6.7475)">
<text font-family="sans-serif" font-size="1.8500" text-anchor="start" fill="currentColor">
<tspan>6</tspan>
</text>
</g>
<g transform="translate(78.0888, 9.4104)">
<path stroke-width="0.1000" stroke-linejoin="round" stroke-linecap="round" stroke="currentColor" fill="currentColor" d="M0 0.5250C0.2000 0.1250 0.8000 0.1250 1.0000 0.5250C0.8000 0.0250 0.2000 0.0250 0 0.5250z"/>
</g>
<g transform="translate(78.0888, 9.4104)">
<path stroke-width="0.1000" stroke-linejoin="round" stroke-linecap="round" stroke="currentColor" fill="currentColor" d="M2.0000 1.5250C2.2000 1.1250 2.8000 1.1250 3.0000 1.5250C2.8000 1.0250 2.2000 1.0250 2.0000 1.5250z"/>
</g>
<g transform="translate(78.0888, 9.4104)">
<rect x="2.9750" y="-0.0250" width="0.0500" height="5.0500" ry="0.0250" fill="currentColor"/>
</g>
<g transform="translate(78.0888, 9.4104)">
<rect x="1.9750" y="-0.0250" width="0.0500" height="5.0500" ry="0.0250" fill="currentColor"/>
</g>
<g transform="translate(78.0888, 9.4104)">
<rect x="0.9750" y="-0.0250" width="0.0500" height="5.0500" ry="0.0250" fill="currentColor"/>
</g>
<g transform="translate(78.0888, 9.4104)">
<rect x="-0.0250" y="-0.0250" width="0.0500" height="5.0500" ry="0.0250" fill="currentColor"/>
</g>
<g transform="translate(78.0888, 9.4104)">
<line stroke-linejoin="round" stroke-linecap="round" stroke-width="0.0500" stroke="currentColor" x1="0.0000" y1="0" x2="3.0000" y2="0"/>
</g>
<g transform="translate(78.0888, 9.4104)">
<line stroke-linejoin="round" stroke-linecap="round" stroke-width="0.0500" stroke="currentColor" x1="0.0000" y1="1.0000" x2="3.0000" y2="1.0000"/>
</g>
<g transform="translate(78.0888, 9.4104)">
<line stroke-linejoin="round" stroke-linecap="round" stroke-width="0.0500" stroke="currentColor" x1="0.0000" y1="2.0000" x2="3.0000" y2="2.0000"/>
</g>
<g transform="translate(78.0888, 9.4104)">
<line stroke-linejoin="round" stroke-linecap="round" stroke-width="0.0500" stroke="currentColor" x1="0.0000" y1="3.0000" x2="3.0000" y2="3.0000"/>
</g>
<g transform="translate(78.0888, 9.4104)">
<line stroke-linejoin="round" stroke-linecap="round" stroke-width="0.0500" stroke="currentColor" x1="0.0000" y1="4.0000" x2="3.0000" y2="4.0000"/>
</g>
<g color="rgb(0%, 0%, 0%)">
<g transform="translate(78.0888, 9.9354)">
<circle stroke-linejoin="round" stroke-linecap="round" fill="currentColor" stroke="currentColor" stroke-width="0.0500" r="0.4250"/>
</g>
</g>
<g color="rgb(100.0000%, 100.0000%, 100.0000%)">
<g transform="scale(0.8542, 0.8542)">
<g transform="translate(91.1583, 11.9723)">
<text font-family="sans-serif" font-size="0.9353" text-anchor="start" fill="currentColor">
<tspan>1</tspan>
</text>
</g>
</g>
</g>
<g color="rgb(0%, 0%, 0%)">
<g transform="translate(79.0888, 9.9354)">
<circle stroke-linejoin="round" stroke-linecap="round" fill="currentColor" stroke="currentColor" stroke-width="0.0500" r="0.4250"/>
</g>
</g>
<g color="rgb(100.0000%, 100.0000%, 100.0000%)">
<g transform="scale(0.8542, 0.8542)">
<g transform="translate(92.3290, 11.9723)">
<text font-family="sans-serif" font-size="0.9353" text-anchor="start" fill="currentColor">
<tspan>1</tspan>
</text>
</g>
</g>
</g>
<g color="rgb(0%, 0%, 0%)">
<g transform="translate(80.0888, 10.9354)">
<circle stroke-linejoin="round" stroke-linecap="round" fill="currentColor" stroke="currentColor" stroke-width="0.0500" r="0.4250"/>
</g>
</g>
<g color="rgb(100.0000%, 100.0000%, 100.0000%)">
<g transform="scale(0.8542, 0.8542)">
<g transform="translate(93.4996, 13.1429)">
<text font-family="sans-serif" font-size="0.9353" text-anchor="start" fill="currentColor">
<tspan>2</tspan>
</text>
</g>
</g>
</g>
<g color="rgb(0%, 0%, 0%)">
<g transform="translate(81.0888, 10.9354)">
<circle stroke-linejoin="round" stroke-linecap="round" fill="currentColor" stroke="currentColor" stroke-width="0.0500" r="0.4250"/>
</g>
</g>
<g color="rgb(100.0000%, 100.0000%, 100.0000%)">
<g transform="scale(0.8542, 0.8542)">
<g transform="translate(94.6703, 13.1429)">
<text font-family="sans-serif" font-size="0.9353" text-anchor="start" fill="currentColor">
<tspan>2</tspan>
</text>
</g>
</g>
</g>
<g transform="translate(78.0888, 9.4104)">
<rect x="-0.0250" y="-0.1250" width="3.0500" height="0.1500" ry="0.0250" fill="currentColor"/>
</g>
<g transform="translate(87.7703, 7.9367)">
<text font-family="sans-serif" font-size="2.6163" text-anchor="start" fill="currentColor">
<tspan>B</tspan>
</text>
</g>
<g transform="translate(89.5116, 6.7475)">
<text font-family="sans-serif" font-size="1.8500" text-anchor="start" fill="currentColor">
<tspan>sus</tspan>
</text>
</g>
<g transform="translate(92.3797, 6.7475)">
<text font-family="sans-serif" font-size="1.8500" text-anchor="start" fill="currentColor">
<tspan>2</tspan>
</text>
</g>
<g transform="translate(86.7946, 9.4104)">
<path stroke-width="0.1000" stroke-linejoin="round" stroke-linecap="round" stroke="currentColor" fill="currentColor" d="M0 0.5250C0.3000 0.1250 1.7000 0.1250 2.0000 0.5250C1.7000 0.0250 0.3000 0.0250 0 0.5250z"/>
</g>
<g transform="translate(86.7946, 9.4104)">
<rect x="2.9750" y="-0.0250" width="0.0500" height="5.0500" ry="0.0250" fill="currentColor"/>
</g>
<g transform="translate(86.7946, 9.4104)">
<rect x="1.9750" y="-0.0250" width="0.0500" height="5.0500" ry="0.0250" fill="currentColor"/>
</g>
<g transform="translate(86.7946, 9.4104)">
<rect x="0.9750" y="-0.0250" width="0.0500" height="5.0500" ry="0.0250" fill="currentColor"/>
</g>
<g transform="translate(86.7946, 9.4104)">
<rect x="-0.0250" y="-0.0250" width="0.0500" height="5.0500" ry="0.0250" fill="currentColor"/>
</g>
<g transform="translate(86.7946, 9.4104)">
<line stroke-linejoin="round" stroke-linecap="round" stroke-width="0.0500" stroke="currentColor" x1="0.0000" y1="0" x2="3.0000" y2="0"/>
</g>
<g transform="translate(86.7946, 9.4104)">
<line stroke-linejoin="round" stroke-linecap="round" stroke-width="0.0500" stroke="currentColor" x1="0.0000" y1="1.0000" x2="3.0000" y2="1.0000"/>
</g>
<g transform="translate(86.7946, 9.4104)">
<line stroke-linejoin="round" stroke-linecap="round" stroke-width="0.0500" stroke="currentColor" x1="0.0000" y1="2.0000" x2="3.0000" y2="2.0000"/>
</g>
<g transform="translate(86.7946, 9.4104)">
<line stroke-linejoin="round" stroke-linecap="round" stroke-width="0.0500" stroke="currentColor" x1="0.0000" y1="3.0000" x2="3.0000" y2="3.0000"/>
</g>
<g transform="translate(86.7946, 9.4104)">
<line stroke-linejoin="round" stroke-linecap="round" stroke-width="0.0500" stroke="currentColor" x1="0.0000" y1="4.0000" x2="3.0000" y2="4.0000"/>
</g>
<g color="rgb(0%, 0%, 0%)">
<g transform="translate(86.7946, 9.9354)">
<circle stroke-linejoin="round" stroke-linecap="round" fill="currentColor" stroke="currentColor" stroke-width="0.0500" r="0.4250"/>
</g>
</g>
<g color="rgb(100.0000%, 100.0000%, 100.0000%)">
<g transform="scale(0.8542, 0.8542)">
<g transform="translate(101.3498, 11.9723)">
<text font-family="sans-serif" font-size="0.9353" text-anchor="start" fill="currentColor">
<tspan>1</tspan>
</text>
</g>
</g>
</g>
<g color="rgb(0%, 0%, 0%)">
<g transform="translate(87.7946, 9.9354)">
<circle stroke-linejoin="round" stroke-linecap="round" fill="currentColor" stroke="currentColor" stroke-width="0.0500" r="0.4250"/>
</g>
</g>
<g color="rgb(100.0000%, 100.0000%, 100.0000%)">
<g transform="scale(0.8542, 0.8542)">
<g transform="translate(102.5205, 11.9723)">
<text font-family="sans-serif" font-size="0.9353" text-anchor="start" fill="currentColor">
<tspan>1</tspan>
</text>
</g>
</g>
</g>
<g color="rgb(0%, 0%, 0%)">
<g transform="translate(88.7946, 9.9354)">
<circle stroke-linejoin="round" stroke-linecap="round" fill="currentColor" stroke="currentColor" stroke-width="0.0500" r="0.4250"/>
</g>
</g>
<g color="rgb(100.0000%, 100.0000%, 100.0000%)">
<g transform="scale(0.8542, 0.8542)">
<g transform="translate(103.6911, 11.9723)">
<text font-family="sans-serif" font-size="0.9353" text-anchor="start" fill="currentColor">
<tspan>1</tspan>
</text>
</g>
</g>
</g>
<g color="rgb(0%, 0%, 0%)">
<g transform="translate(89.7946, 12.9354)">
<circle stroke-linejoin="round" stroke-linecap="round" fill="currentColor" stroke="currentColor" stroke-width="0.0500" r="0.4250"/>
</g>
</g>
<g color="rgb(100.0000%, 100.0000%, 100.0000%)">
<g transform="scale(0.8542, 0.8542)">
<g transform="translate(104.8618, 15.4842)">
<text font-family="sans-serif" font-size="0.9353" text-anchor="start" fill="currentColor">
<tspan>4</tspan>
</text>
</g>
</g>
</g>
<g transform="translate(90.3117, 10.8201)">
<text font-family="sans-serif" font-size="1.1003" text-anchor="start" fill="currentColor">
<tspan>iv</tspan>
</text>
</g>
<g transform="translate(96.7319, 7.9367)">
<text font-family="sans-serif" font-size="2.6163" text-anchor="start" fill="currentColor">
<tspan>B</tspan>
</text>
</g>
<g transform="translate(98.4732, 6.7475)">
<text font-family="sans-serif" font-size="1.8500" text-anchor="start" fill="currentColor">
<tspan>sus</tspan>
</text>
</g>
<g transform="translate(101.3412, 6.7475)">
<text font-family="sans-serif" font-size="1.8500" text-anchor="start" fill="currentColor">
<tspan>4</tspan>
</text>
</g>
<g transform="translate(96.0119, 9.4104)">
<path stroke-width="0.1000" stroke-linejoin="round" stroke-linecap="round" stroke="currentColor" fill="currentColor" d="M1.0000 1.5250C1.3000 1.1250 2.7000 1.1250 3.0000 1.5250C2.7000 1.0250 1.3000 1.0250 1.0000 1.5250z"/>
</g>
<g transform="translate(96.0119, 9.4104)">
<rect x="2.9750" y="-0.0250" width="0.0500" height="5.0500" ry="0.0250" fill="currentColor"/>
</g>
<g transform="translate(96.0119, 9.4104)">
<rect x="1.9750" y="-0.0250" width="0.0500" height="5.0500" ry="0.0250" fill="currentColor"/>
</g>
<g transform="translate(96.0119, 9.4104)">
<rect x="0.9750" y="-0.0250" width="0.0500" height="5.0500" ry="0.0250" fill="currentColor"/>
</g>
<g transform="translate(96.0119, 9.4104)">
<rect x="-0.0250" y="-0.0250" width="0.0500" height="5.0500" ry="0.0250" fill="currentColor"/>
</g>
<g transform="translate(96.0119, 9.4104)">
<line stroke-linejoin="round" stroke-linecap="round" stroke-width="0.0500" stroke="currentColor" x1="0.0000" y1="0" x2="3.0000" y2="0"/>
</g>
<g transform="translate(96.0119, 9.4104)">
<line stroke-linejoin="round" stroke-linecap="round" stroke-width="0.0500" stroke="currentColor" x1="0.0000" y1="1.0000" x2="3.0000" y2="1.0000"/>
</g>
<g transform="translate(96.0119, 9.4104)">
<line stroke-linejoin="round" stroke-linecap="round" stroke-width="0.0500" stroke="currentColor" x1="0.0000" y1="2.0000" x2="3.0000" y2="2.0000"/>
</g>
<g transform="translate(96.0119, 9.4104)">
<line stroke-linejoin="round" stroke-linecap="round" stroke-width="0.0500" stroke="currentColor" x1="0.0000" y1="3.0000" x2="3.0000" y2="3.0000"/>
</g>
<g transform="translate(96.0119, 9.4104)">
<line stroke-linejoin="round" stroke-linecap="round" stroke-width="0.0500" stroke="currentColor" x1="0.0000" y1="4.0000" x2="3.0000" y2="4.0000"/>
</g>
<g color="rgb(0%, 0%, 0%)">
<g transform="translate(96.0119, 12.9354)">
<circle stroke-linejoin="round" stroke-linecap="round" fill="currentColor" stroke="currentColor" stroke-width="0.0500" r="0.4250"/>
</g>
</g>
<g color="rgb(100.0000%, 100.0000%, 100.0000%)">
<g transform="scale(0.8542, 0.8542)">
<g transform="translate(112.1400, 15.4842)">
<text font-family="sans-serif" font-size="0.9353" text-anchor="start" fill="currentColor">
<tspan>3</tspan>
</text>
</g>
</g>
</g>
<g color="rgb(0%, 0%, 0%)">
<g transform="translate(97.0119, 10.9354)">
<circle stroke-linejoin="round" stroke-linecap="round" fill="currentColor" stroke="currentColor" stroke-width="0.0500" r="0.4250"/>
</g>
</g>
<g color="rgb(100.0000%, 100.0000%, 100.0000%)">
<g transform="scale(0.8542, 0.8542)">
<g transform="translate(113.3107, 13.1429)">
<text font-family="sans-serif" font-size="0.9353" text-anchor="start" fill="currentColor">
<tspan>1</tspan>
</text>
</g>
</g>
</g>
<g color="rgb(0%, 0%, 0%)">
<g transform="translate(98.0119, 10.9354)">
<circle stroke-linejoin="round" stroke-linecap="round" fill="currentColor" stroke="currentColor" stroke-width="0.0500" r="0.4250"/>
</g>
</g>
<g color="rgb(100.0000%, 100.0000%, 100.0000%)">
<g transform="scale(0.8542, 0.8542)">
<g transform="translate(114.4813, 13.1429)">
<text font-family="sans-serif" font-size="0.9353" text-anchor="start" fill="currentColor">
<tspan>1</tspan>
</text>
</g>
</g>
</g>
<g color="rgb(0%, 0%, 0%)">
<g transform="translate(99.0119, 10.9354)">
<circle stroke-linejoin="round" stroke-linecap="round" fill="currentColor" stroke="currentColor" stroke-width="0.0500" r="0.4250"/>
</g>
</g>
<g color="rgb(100.0000%, 100.0000%, 100.0000%)">
<g transform="scale(0.8542, 0.8542)">
<g transform="translate(115.6520, 13.1429)">
<text font-family="sans-serif" font-size="0.9353" text-anchor="start" fill="currentColor">
<tspan>1</tspan>
</text>
</g>
</g>
</g>
<g transform="translate(96.0119, 9.4104)">
<rect x="-0.0250" y="-0.1250" width="3.0500" height="0.1500" ry="0.0250" fill="currentColor"/>
</g>
<g transform="translate(105.6935, 7.9367)">
<text font-family="sans-serif" font-size="2.6163" text-anchor="start" fill="currentColor">
<tspan>B</tspan>
</text>
</g>
<g transform="translate(107.4348, 6.7475)">
<text font-family="sans-serif" font-size="1.8500" text-anchor="start" fill="currentColor">
<tspan>9</tspan>
</text>
</g>
<g transform="translate(104.9735, 9.4104)">
<rect x="2.9750" y="-0.0250" width="0.0500" height="6.0500" ry="0.0250" fill="currentColor"/>
</g>
<g transform="translate(104.9735, 9.4104)">
<rect x="1.9750" y="-0.0250" width="0.0500" height="6.0500" ry="0.0250" fill="currentColor"/>
</g>
<g transform="translate(104.9735, 9.4104)">
<rect x="0.9750" y="-0.0250" width="0.0500" height="6.0500" ry="0.0250" fill="currentColor"/>
</g>
<g transform="translate(104.9735, 9.4104)">
<rect x="-0.0250" y="-0.0250" width="0.0500" height="6.0500" ry="0.0250" fill="currentColor"/>
</g>
<g transform="translate(104.9735, 9.4104)">
<line stroke-linejoin="round" stroke-linecap="round" stroke-width="0.0500" stroke="currentColor" x1="0.0000" y1="0" x2="3.0000" y2="0"/>
</g>
<g transform="translate(104.9735, 9.4104)">
<line stroke-linejoin="round" stroke-linecap="round" stroke-width="0.0500" stroke="currentColor" x1="0.0000" y1="1.0000" x2="3.0000" y2="1.0000"/>
</g>
<g transform="translate(104.9735, 9.4104)">
<line stroke-linejoin="round" stroke-linecap="round" stroke-width="0.0500" stroke="currentColor" x1="0.0000" y1="2.0000" x2="3.0000" y2="2.0000"/>
</g>
<g transform="translate(104.9735, 9.4104)">
<line stroke-linejoin="round" stroke-linecap="round" stroke-width="0.0500" stroke="currentColor" x1="0.0000" y1="3.0000" x2="3.0000" y2="3.0000"/>
</g>
<g transform="translate(104.9735, 9.4104)">
<line stroke-linejoin="round" stroke-linecap="round" stroke-width="0.0500" stroke="currentColor" x1="0.0000" y1="4.0000" x2="3.0000" y2="4.0000"/>
</g>
<g transform="translate(104.9735, 9.4104)">
<line stroke-linejoin="round" stroke-linecap="round" stroke-width="0.0500" stroke="currentColor" x1="0.0000" y1="5.0000" x2="3.0000" y2="5.0000"/>
</g>
<g color="rgb(0%, 0%, 0%)">
<g transform="translate(104.9735, 12.9354)">
<circle stroke-linejoin="round" stroke-linecap="round" fill="currentColor" stroke="currentColor" stroke-width="0.0500" r="0.4250"/>
</g>
</g>
<g color="rgb(100.0000%, 100.0000%, 100.0000%)">
<g transform="scale(0.8542, 0.8542)">
<g transform="translate(122.6308, 15.4842)">
<text font-family="sans-serif" font-size="0.9353" text-anchor="start" fill="currentColor">
<tspan>2</tspan>
</text>
</g>
</g>
</g>
<g color="rgb(0%, 0%, 0%)">
<g transform="translate(105.9735, 9.9354)">
<circle stroke-linejoin="round" stroke-linecap="round" fill="currentColor" stroke="currentColor" stroke-width="0.0500" r="0.4250"/>
</g>
</g>
<g color="rgb(100.0000%, 100.0000%, 100.0000%)">
<g transform="scale(0.8542, 0.8542)">
<g transform="translate(123.8015, 11.9723)">
<text font-family="sans-serif" font-size="0.9353" text-anchor="start" fill="currentColor">
<tspan>1</tspan>
</text>
</g>
</g>
</g>
<g color="rgb(0%, 0%, 0%)">
<g transform="translate(106.9735, 12.9354)">
<circle stroke-linejoin="round" stroke-linecap="round" fill="currentColor" stroke="currentColor" stroke-width="0.0500" r="0.4250"/>
</g>
</g>
<g color="rgb(100.0000%, 100.0000%, 100.0000%)">
<g transform="scale(0.8542, 0.8542)">
<g transform="translate(124.9721, 15.4842)">
<text font-family="sans-serif" font-size="0.9353" text-anchor="start" fill="currentColor">
<tspan>3</tspan>
</text>
</g>
</g>
</g>
<g color="rgb(0%, 0%, 0%)">
<g transform="translate(107.9735, 13.9354)">
<circle stroke-linejoin="round" stroke-linecap="round" fill="currentColor" stroke="currentColor" stroke-width="0.0500" r="0.4250"/>
</g>
</g>
<g color="rgb(100.0000%, 100.0000%, 100.0000%)">
<g transform="scale(0.8542, 0.8542)">
<g transform="translate(126.1428, 16.6549)">
<text font-family="sans-serif" font-size="0.9353" text-anchor="start" fill="currentColor">
<tspan>4</tspan>
</text>
</g>
</g>
</g>
<g transform="translate(104.9735, 9.4104)">
<rect x="-0.0250" y="-0.1250" width="3.0500" height="0.1500" ry="0.0250" fill="currentColor"/>
</g>
<g transform="translate(6.1406, 9.4104)">
<path stroke-width="0.1000" stroke-linejoin="round" stroke-linecap="round" stroke="currentColor" fill="currentColor" d="M0 0.5250C0.2000 0.1250 0.8000 0.1250 1.0000 0.5250C0.8000 0.0250 0.2000 0.0250 0 0.5250z"/>
</g>
<g transform="translate(6.1406, 9.4104)">
<rect x="2.9750" y="-0.0250" width="0.0500" height="5.0500" ry="0.0250" fill="currentColor"/>
</g>
<g transform="translate(6.1406, 9.4104)">
<rect x="1.9750" y="-0.0250" width="0.0500" height="5.0500" ry="0.0250" fill="currentColor"/>
</g>
<g transform="translate(6.1406, 9.4104)">
<rect x="0.9750" y="-0.0250" width="0.0500" height="5.0500" ry="0.0250" fill="currentColor"/>
</g>
<g transform="translate(6.1406, 9.4104)">
<rect x="-0.0250" y="-0.0250" width="0.0500" height="5.0500" ry="0.0250" fill="currentColor"/>
</g>
<g transform="translate(6.1406, 9.4104)">
<line stroke-linejoin="round" stroke-linecap="round" stroke-width="0.0500" stroke="currentColor" x1="0.0000" y1="0" x2="3.0000" y2="0"/>
</g>
<g transform="translate(6.1406, 9.4104)">
<line stroke-linejoin="round" stroke-linecap="round" stroke-width="0.0500" stroke="currentColor" x1="0.0000" y1="1.0000" x2="3.0000" y2="1.0000"/>
</g>
<g transform="translate(6.1406, 9.4104)">
<line stroke-linejoin="round" stroke-linecap="round" stroke-width="0.0500" stroke="currentColor" x1="0.0000" y1="2.0000" x2="3.0000" y2="2.0000"/>
</g>
<g transform="translate(6.1406, 9.4104)">
<line stroke-linejoin="round" stroke-linecap="round" stroke-width="0.0500" stroke="currentColor" x1="0.0000" y1="3.0000" x2="3.0000" y2="3.0000"/>
</g>
<g transform="translate(6.1406, 9.4104)">
<line stroke-linejoin="round" stroke-linecap="round" stroke-width="0.0500" stroke="currentColor" x1="0.0000" y1="4.0000" x2="3.0000" y2="4.0000"/>
</g>
<g color="rgb(0%, 0%, 0%)">
<g transform="translate(6.1406, 9.9354)">
<circle stroke-linejoin="round" stroke-linecap="round" fill="currentColor" stroke="currentColor" stroke-width="0.0500" r="0.4250"/>
</g>
</g>
<g color="rgb(100.0000%, 100.0000%, 100.0000%)">
<g transform="scale(0.8542, 0.8542)">
<g transform="translate(6.9323, 11.9723)">
<text font-family="sans-serif" font-size="0.9353" text-anchor="start" fill="currentColor">
<tspan>1</tspan>
</text>
</g>
</g>
</g>
<g color="rgb(0%, 0%, 0%)">
<g transform="translate(7.1406, 9.9354)">
<circle stroke-linejoin="round" stroke-linecap="round" fill="currentColor" stroke="currentColor" stroke-width="0.0500" r="0.4250"/>
</g>
</g>
<g color="rgb(100.0000%, 100.0000%, 100.0000%)">
<g transform="scale(0.8542, 0.8542)">
<g transform="translate(8.1030, 11.9723)">
<text font-family="sans-serif" font-size="0.9353" text-anchor="start" fill="currentColor">
<tspan>1</tspan>
</text>
</g>
</g>
</g>
<g color="rgb(0%, 0%, 0%)">
<g transform="translate(8.1406, 11.9354)">
<circle stroke-linejoin="round" stroke-linecap="round" fill="currentColor" stroke="currentColor" stroke-width="0.0500" r="0.4250"/>
</g>
</g>
<g color="rgb(100.0000%, 100.0000%, 100.0000%)">
<g transform="scale(0.8542, 0.8542)">
<g transform="translate(9.2736, 14.3136)">
<text font-family="sans-serif" font-size="0.9353" text-anchor="start" fill="currentColor">
<tspan>3</tspan>
</text>
</g>
</g>
</g>
<g color="rgb(0%, 0%, 0%)">
<g transform="translate(9.1406, 12.9354)">
<circle stroke-linejoin="round" stroke-linecap="round" fill="currentColor" stroke="currentColor" stroke-width="0.0500" r="0.4250"/>
</g>
</g>
<g color="rgb(100.0000%, 100.0000%, 100.0000%)">
<g transform="scale(0.8542, 0.8542)">
<g transform="translate(10.4443, 15.4842)">
<text font-family="sans-serif" font-size="0.9353" text-anchor="start" fill="currentColor">
<tspan>4</tspan>
</text>
</g>
</g>
</g>
<g transform="translate(9.6576, 10.8201)">
<text font-family="sans-serif" font-size="1.1003" text-anchor="start" fill="currentColor">
<tspan>iv</tspan>
</text>
</g>
<g transform="translate(24.3194, 9.4104)">
<rect x="2.9750" y="-0.0250" width="0.0500" height="5.0500" ry="0.0250" fill="currentColor"/>
</g>
<g transform="translate(24.3194, 9.4104)">
<rect x="1.9750" y="-0.0250" width="0.0500" height="5.0500" ry="0.0250" fill="currentColor"/>
</g>
<g transform="translate(24.3194, 9.4104)">
<rect x="0.9750" y="-0.0250" width="0.0500" height="5.0500" ry="0.0250" fill="currentColor"/>
</g>
<g transform="translate(24.3194, 9.4104)">
<rect x="-0.0250" y="-0.0250" width="0.0500" height="5.0500" ry="0.0250" fill="currentColor"/>
</g>
<g transform="translate(24.3194, 9.4104)">
<line stroke-linejoin="round" stroke-linecap="round" stroke-width="0.0500" stroke="currentColor" x1="0.0000" y1="0" x2="3.0000" y2="0"/>
</g>
<g transform="translate(24.3194, 9.4104)">
<line stroke-linejoin="round" stroke-linecap="round" stroke-width="0.0500" stroke="currentColor" x1="0.0000" y1="1.0000" x2="3.0000" y2="1.0000"/>
</g>
<g transform="translate(24.3194, 9.4104)">
<line stroke-linejoin="round" stroke-linecap="round" stroke-width="0.0500" stroke="currentColor" x1="0.0000" y1="2.0000" x2="3.0000" y2="2.0000"/>
</g>
<g transform="translate(24.3194, 9.4104)">
<line stroke-linejoin="round" stroke-linecap="round" stroke-width="0.0500" stroke="currentColor" x1="0.0000" y1="3.0000" x2="3.0000" y2="3.0000"/>
</g>
<g transform="translate(24.3194, 9.4104)">
<line stroke-linejoin="round" stroke-linecap="round" stroke-width="0.0500" stroke="currentColor" x1="0.0000" y1="4.0000" x2="3.0000" y2="4.0000"/>
</g>
<g color="rgb(0%, 0%, 0%)">
<g transform="translate(24.3194, 12.9354)">
<circle stroke-linejoin="round" stroke-linecap="round" fill="currentColor" stroke="currentColor" stroke-width="0.0500" r="0.4250"/>
</g>
</g>
<g color="rgb(100.0000%, 100.0000%, 100.0000%)">
<g transform="scale(0.8542, 0.8542)">
<g transform="translate(28.2134, 15.4842)">
<text font-family="sans-serif" font-size="0.9353" text-anchor="start" fill="currentColor">
<tspan>4</tspan>
</text>
</g>
</g>
</g>
<g color="rgb(0%, 0%, 0%)">
<g transform="translate(25.3194, 9.9354)">
<circle stroke-linejoin="round" stroke-linecap="round" fill="currentColor" stroke="currentColor" stroke-width="0.0500" r="0.4250"/>
</g>
</g>
<g color="rgb(100.0000%, 100.0000%, 100.0000%)">
<g transform="scale(0.8542, 0.8542)">
<g transform="translate(29.3840, 11.9723)">
<text font-family="sans-serif" font-size="0.9353" text-anchor="start" fill="currentColor">
<tspan>1</tspan>
</text>
</g>
</g>
</g>
<g color="rgb(0%, 0%, 0%)">
<g transform="translate(26.3194, 10.9354)">
<circle stroke-linejoin="round" stroke-linecap="round" fill="currentColor" stroke="currentColor" stroke-width="0.0500" r="0.4250"/>
</g>
</g>
<g color="rgb(100.0000%, 100.0000%, 100.0000%)">
<g transform="scale(0.8542, 0.8542)">
<g transform="translate(30.5547, 13.1429)">
<text font-family="sans-serif" font-size="0.9353" text-anchor="start" fill="currentColor">
<tspan>2</tspan>
</text>
</g>
</g>
</g>
<g color="rgb(0%, 0%, 0%)">
<g transform="translate(27.3194, 11.9354)">
<circle stroke-linejoin="round" stroke-linecap="round" fill="currentColor" stroke="currentColor" stroke-width="0.0500" r="0.4250"/>
</g>
</g>
<g color="rgb(100.0000%, 100.0000%, 100.0000%)">
<g transform="scale(0.8542, 0.8542)">
<g transform="translate(31.7253, 14.3136)">
<text font-family="sans-serif" font-size="0.9353" text-anchor="start" fill="currentColor">
<tspan>3</tspan>
</text>
</g>
</g>
</g>
<g transform="translate(24.3194, 9.4104)">
<rect x="-0.0250" y="-0.1250" width="3.0500" height="0.1500" ry="0.0250" fill="currentColor"/>
</g>
<g transform="translate(25.0394, 7.9367)">
<text font-family="sans-serif" font-size="2.6163" text-anchor="start" fill="currentColor">
<tspan>B</tspan>
</text>
</g>
<g transform="translate(26.7807, 7.9367)">
<text font-family="sans-serif" font-size="2.6163" text-anchor="start" fill="currentColor">
<tspan>+</tspan>
</text>
</g>
<g transform="translate(7.1163, 7.9367)">
<text font-family="sans-serif" font-size="2.6163" text-anchor="start" fill="currentColor">
<tspan>B</tspan>
</text>
</g>
<g transform="translate(15.3578, 9.4104)">
<path stroke-width="0.1000" stroke-linejoin="round" stroke-linecap="round" stroke="currentColor" fill="currentColor" d="M2.0000 1.5250C2.2000 1.1250 2.8000 1.1250 3.0000 1.5250C2.8000 1.0250 2.2000 1.0250 2.0000 1.5250z"/>
</g>
<g transform="translate(15.3578, 9.4104)">
<rect x="2.9750" y="-0.0250" width="0.0500" height="5.0500" ry="0.0250" fill="currentColor"/>
</g>
<g transform="translate(15.3578, 9.4104)">
<rect x="1.9750" y="-0.0250" width="0.0500" height="5.0500" ry="0.0250" fill="currentColor"/>
</g>
<g transform="translate(15.3578, 9.4104)">
<rect x="0.9750" y="-0.0250" width="0.0500" height="5.0500" ry="0.0250" fill="currentColor"/>
</g>
<g transform="translate(15.3578, 9.4104)">
<rect x="-0.0250" y="-0.0250" width="0.0500" height="5.0500" ry="0.0250" fill="currentColor"/>
</g>
<g transform="translate(15.3578, 9.4104)">
<line stroke-linejoin="round" stroke-linecap="round" stroke-width="0.0500" stroke="currentColor" x1="0.0000" y1="0" x2="3.0000" y2="0"/>
</g>
<g transform="translate(15.3578, 9.4104)">
<line stroke-linejoin="round" stroke-linecap="round" stroke-width="0.0500" stroke="currentColor" x1="0.0000" y1="1.0000" x2="3.0000" y2="1.0000"/>
</g>
<g transform="translate(15.3578, 9.4104)">
<line stroke-linejoin="round" stroke-linecap="round" stroke-width="0.0500" stroke="currentColor" x1="0.0000" y1="2.0000" x2="3.0000" y2="2.0000"/>
</g>
<g transform="translate(15.3578, 9.4104)">
<line stroke-linejoin="round" stroke-linecap="round" stroke-width="0.0500" stroke="currentColor" x1="0.0000" y1="3.0000" x2="3.0000" y2="3.0000"/>
</g>
<g transform="translate(15.3578, 9.4104)">
<line stroke-linejoin="round" stroke-linecap="round" stroke-width="0.0500" stroke="currentColor" x1="0.0000" y1="4.0000" x2="3.0000" y2="4.0000"/>
</g>
<g color="rgb(0%, 0%, 0%)">
<g transform="translate(15.3578, 12.9354)">
<circle stroke-linejoin="round" stroke-linecap="round" fill="currentColor" stroke="currentColor" stroke-width="0.0500" r="0.4250"/>
</g>
</g>
<g color="rgb(100.0000%, 100.0000%, 100.0000%)">
<g transform="scale(0.8542, 0.8542)">
<g transform="translate(17.7225, 15.4842)">
<text font-family="sans-serif" font-size="0.9353" text-anchor="start" fill="currentColor">
<tspan>3</tspan>
</text>
</g>
</g>
</g>
<g color="rgb(0%, 0%, 0%)">
<g transform="translate(17.3578, 10.9354)">
<circle stroke-linejoin="round" stroke-linecap="round" fill="currentColor" stroke="currentColor" stroke-width="0.0500" r="0.4250"/>
</g>
</g>
<g color="rgb(100.0000%, 100.0000%, 100.0000%)">
<g transform="scale(0.8542, 0.8542)">
<g transform="translate(20.0638, 13.1429)">
<text font-family="sans-serif" font-size="0.9353" text-anchor="start" fill="currentColor">
<tspan>1</tspan>
</text>
</g>
</g>
</g>
<g color="rgb(0%, 0%, 0%)">
<g transform="translate(18.3578, 10.9354)">
<circle stroke-linejoin="round" stroke-linecap="round" fill="currentColor" stroke="currentColor" stroke-width="0.0500" r="0.4250"/>
</g>
</g>
<g color="rgb(100.0000%, 100.0000%, 100.0000%)">
<g transform="scale(0.8542, 0.8542)">
<g transform="translate(21.2345, 13.1429)">
<text font-family="sans-serif" font-size="0.9353" text-anchor="start" fill="currentColor">
<tspan>1</tspan>
</text>
</g>
</g>
</g>
<g transform="translate(15.3578, 9.4104)">
<rect x="-0.0250" y="-0.1250" width="3.0500" height="0.1500" ry="0.0250" fill="currentColor"/>
</g>
<g transform="translate(16.0164, 9.0854)">
<text font-family="sans-serif" font-size="0.8803" text-anchor="start" fill="currentColor">
<tspan>O</tspan>
</text>
</g>
<g transform="translate(16.0778, 7.9367)">
<text font-family="sans-serif" font-size="2.6163" text-anchor="start" fill="currentColor">
<tspan>B</tspan>
</text>
</g>
<g transform="translate(17.8191, 7.9367)">
<text font-family="sans-serif" font-size="2.6163" text-anchor="start" fill="currentColor">
<tspan>m</tspan>
</text>
</g>
</svg>
